<svg viewBox="0 0 2600 2326.9506" xmlns="http://www.w3.org/2000/svg"><path d="M581 2118v-828H393q-23 0-40.5-43T335 1127q0-77 17.5-120t40.5-43h85v-37.5q0-22.5 1-37.5 23-3 47.5-5t57.5-2V682q-83-7-136.5-15T371 649q-33-14-75.5-62.5t-83-112.5Q172 410 146 347.5T120 244q0-38 15.5-61t47.5-23q12 0 29 5t60 21q222 80 477.5 122t550.5 42q295 0 550.5-42T2328 186q44-16 60.5-21t28.5-5q32 0 47.5 23t15.5 61q0 41-26 103.5T2387.5 474q-40.5 64-83 112.5T2229 649q-23 10-76.5 18T2016 682v200q33 0 58 2t47 5q1 15 1 37.5V964h85q23 0 40.5 43t17.5 120q0 77-17.5 120t-40.5 43h-188v828h-276v-828H857v828H581zm138 122q-33 0-72-2.5t-104-9.5q-9-56-9-117 0-32 2.5-58.5t6.5-54.5q41-5 85-6.5t91-1.5q48 0 91.5 1.5t84.5 6.5q5 28 7 54.5t2 58.5q0 61-9 117-65 7-104 9.5t-72 2.5zm1162 0q-33 0-72-2.5t-104-9.5q-9-56-9-117 0-32 2.5-58.5t6.5-54.5q41-5 84.5-6.5t91.5-1.5q47 0 91 1.5t85 6.5q5 28 7 54.5t2 58.5q0 61-9 117-65 7-104 9.5t-72 2.5zM661 2038h116v-828h1046v828h116v-828h231q6 0 10.5-27t4.5-56q0-29-4.5-56t-10.5-27h-122v-82q-17-2-46-3t-66-1V691l-110 6v261q-37 0-66 1t-46 3v82h-364V630q80-1 181.5-3t207.5-6q106-4 202-10.5t167.5-16.5q71.5-10 102.5-24 29-13 69-69.5t83-147.5l-59 15q-226 57-473.5 84.5T1300 480q-283 0-530.5-27.5T296 368l-59-15q43 91 83.5 147.5T389 570q31 14 102.5 24T659 610.5q96 6.5 202 10.5t207.5 6q101.5 2 181.5 3v414H886v-82q-17-2-46-3t-66-1V697l-110-6v267q-37 0-66 1t-46 3v82H430q-6 0-10.5 27t-4.5 56q0 29 4.5 56t10.5 27h231v828zM960 964h210V709l-164-4q-82-2-152-4v181q34 0 58.5 2t46.5 5q1 15 1 37.5V964zm470 0h210v-37.5q0-22.5 1-37.5 22-3 46.5-5t58.5-2V701q-70 2-151.5 4t-164.5 4v255z"/></svg>