<svg viewBox="0 0 2600 2326.9506" xmlns="http://www.w3.org/2000/svg"><path d="M1604 2240l-40-273q-24-162-50.5-271t-66-178.5q-39.5-69.5-101-112t-153-70.5q-91.5-28-223.5-55l-165-34v-93l165-34q132-27 223.5-55t153-70.5q61.5-42.5 101-111.5t66-178q26.5-109 50.5-271l40-273h98l39 273q23 162 49.5 271t66.5 178.5q40 69.5 101.5 112t153 70Q2203 1092 2335 1119l165 34v93l-165 34q-132 27-223.5 55t-153 70.5q-61.5 42.5-101.5 112t-66.5 178.5q-26.5 109-49.5 271l-39 273h-98zm-1103 0l-33-161q-20-100-41.5-158t-59.5-88.5q-38-30.5-109-49.5l-158-42v-93l158-43q71-20 109-50.5t59.5-87.5q21.5-57 41.5-157l33-161h101l32 161q20 100 41.5 157t60 87.5Q774 1585 845 1605l157 43v93l-157 42q-71 19-109.5 49.5t-60 88.5q-21.5 58-41.5 158l-32 161H501zm47-113q18-117 40.5-194t59.5-124q37-47 98.5-73.5T905 1691v6q-97-18-158.5-44.5t-98.5-73q-37-46.5-59.5-123.5T548 1262h6q-18 117-40 194t-59 123.5q-37 46.5-98.5 73T198 1697v-6q97 18 158.5 44.5T455 1809q37 47 59 124t40 194h-6zm115-1115l-24-127q-16-84-37.5-129t-64-67.5Q495 666 416 649l-78-17v-92l78-18q79-18 121.5-40.5t64-67Q623 370 639 287l24-127h96l25 127q17 83 38 127.5t63.5 66.5q42.5 22 121.5 41l77 18v92l-77 17q-79 17-121.5 40T822 756.5Q801 801 784 885l-25 127h-96zm44-100q16-95 35-152.5t49-90q30-32.5 79-51.5t125-35v6q-76-17-125-35.5T791 502q-30-33-49-90.5T707 259h8q-16 95-35 152.5T631.5 502Q602 535 553 553.5T428 589v-6q76 16 125 35t78.5 51.5q29.5 32.5 48.5 90T715 912h-8zm942 1136q23-170 46.5-292t55.5-206.5q32-84.5 79-140t116-92.5q69-37 166.5-65t231.5-56v8q-134-29-231.5-56.5T1946 1083q-69-37-116-92.5t-79-140q-32-84.5-55.5-206.5T1649 352h7q-23 170-46.5 292T1554 850.5q-32 84.5-79 140t-115.5 92.5q-68.5 37-166 64.5T962 1204v-8q134 28 231.5 55.5t166 64.5q68.5 37 115.5 92.5t79 140q32 84.5 55.5 206.5t46.5 293h-7z"/></svg>