<svg viewBox="0 0 2600 2326.9506" xmlns="http://www.w3.org/2000/svg"><path d="M1407 2240q-88 0-140.5-34t-52.5-90q0-28 21-74.5t48.5-113.5q27.5-67 48.5-157.5t21-206.5q0-76-9.5-151t-29.5-151q-67 20-138 30t-138 10q-182 0-347-74t-300.5-216Q255 870 162 668q163-95 307-139.5T759 484q167 0 317 65t273 187q73-181 200.5-309.5T1846 229q169-69 368-69 82 0 128.5 2.5t95.5 8.5q0 295-106.5 521.5t-297 365.5Q1844 1197 1591 1230q32 111 55 215.5t35.5 205Q1694 1751 1694 1852q0 208-68 298t-219 90zM1129 950q-110-76-226.5-117.5T661 786q-40-2-40-41 0-17 12-28t30-11q90 0 177.5 21.5t171.5 61q84 39.5 163 95.5 15 10 18 26.5t-8 30.5q-23 31-56 9zm278 1210q112 0 159.5-65.5T1614 1852q0-106-14.5-213t-42-225q-27.5-118-66.5-256 198-8 355.5-82T2116 877q112-125 173.5-287t67.5-346q-27-2-60.5-3t-82.5-1q-197 0-361 71t-286.5 209.5Q1444 659 1369 864q-147-155-295-227.5T759 564q-120 0-244 34T267 698q84 163 202.5 280.5t263 180.5q144.5 63 305.5 63 83 0 167.5-12t163.5-44q33 99 48.5 199t15.5 199q0 119-21 212t-48.5 161q-27.5 68-48.5 111t-21 63q0 23 26.5 36t86.5 13zm180-1327q-14-9-17-25.5t7-31.5q54-78 118.5-143.5t134.5-118q70-52.5 140-88.5 16-8 31.5-2t21.5 22q14 34-19 51-109 57-197 134.5T1642 822q-22 32-55 11z"/></svg>