<svg viewBox="0 0 2600 2326.9506" xmlns="http://www.w3.org/2000/svg"><path d="M335 1940V460h1930v1480H335zm76-120h136v-80H411v80zm277 0h135v-80H688v80zm271 0h135v-80H959v80zm-388-148V728h80v944h-80zm660 148h135v-80h-135v80zm271 0h135v-80h-135v80zM411 660h136v-80H411v80zm1362 1160h135v-80h-135v80zM414 1650h1772V750H414v900zm274-990h135v-80H688v80zm1364 1160h136v-80h-136v80zM959 660h135v-80H959v80zm272 0h135v-80h-135v80zm718 1012V728h80v944h-80zM1502 660h135v-80h-135v80zm271 0h135v-80h-135v80zm279 0h136v-80h-136v80z"/></svg>