<svg viewBox="0 0 2600 2326.9506" xmlns="http://www.w3.org/2000/svg"><path d="M568 1370q-31 0-55-15t-24-45q0-17 8.5-30.5T519 1253l720-716q38-37 66.5-52.5T1368 469q32 0 61 15.5t66 52.5l722 716q13 13 21 26.5t8 30.5q0 30-23.5 45t-55.5 15h-171l-628-622-628 622H568zm193 655q14 0 24-10t10-24q0-14-10-24t-24-10q-14 0-24 10t-10 24q0 14 10 24t24 10zm-316-150q-42 0-69-26.5t-27-67.5q0-85 146-133 26-54 72.5-78.5T709 1545v330H445zm8-78h177v-177q-25 0-52 21.5t-44 62.5q-46 15-78.5 38.5T423 1782q0 15 30 15zm400 140q13 0 22-9t9-21q0-13-9-22t-22-9q-13 0-22 9t-9 22q0 12 9 21t22 9zm100 77q14 0 23.5-10t9.5-23q0-14-9.5-24t-23.5-10q-13 0-23 10t-10 24q0 13 10 23t23 10zm79-53q11 0 19-8.5t8-19.5q0-11-8-19.5t-19-8.5q-28 0-28 28t28 28zm132 201h406v-67h-406v67zm-278-454q-10 0-17.5-7.5T861 1683v-75h100v100h-75zm290 317h382v-70h-382v70zm-155-317v-100h100v75q0 9-8 17t-17 8h-75zm-160-160v-75q0-10 7.5-17.5t17.5-7.5h75v100H861zm160 0v-100h75q10 0 17.5 7.5t7.5 17.5v75h-100zm63 692v-148H795q-72 0-108-23t-36-79q0-28 8-65t21-57v-559h80v527h28q32 0 52 9.5t46 9.5q26 0 46.5-9t51.5-9q27 0 50.5 10t45.5 30h574q22-20 45.5-30t51.5-10q32 0 52.5 9t44.5 9q26 0 46.5-9.5t51.5-9.5h28v-527h80v559q13 20 21 57t8 65q0 56-35.5 79t-108.5 23h-289v148h-566zm620-210q14 0 23.5-10.5t9.5-23.5q0-14-9.5-24t-23.5-10q-14 0-24 10t-10 24q0 14 10 24t24 10zm-491-121v-414q0-58 46.5-100.5T1368 1352q62 0 108.5 42.5T1523 1495v414h-310zm-561-302q-87 0-161.5-56T360 1395.5q-56-99.5-87-230.5t-31-282q0-151 31-282t87-230q56-99 130.5-155T652 160q103 0 188.5 86.5t141.5 237q56 150.5 67 343.5l-80 5q-10-170-56.5-303.5t-115-211Q729 240 652 240q-88 0-163.5 86.5t-121 232Q322 704 322 883t45.5 325Q413 1354 488 1440.5t164 86.5q15 0 40-5l20 77q-30 8-60 8zm819 80q13 0 22-9t9-22q0-12-9-21t-22-9q-30 0-30 30 0 13 9 22t21 9zm343 258q14 0 24-10t10-24q0-14-10-24t-24-10q-14 0-24 10t-10 24q0 14 10 24t24 10zm150 59q14 0 24.5-10.5t10.5-24.5q0-14-10.5-25t-24.5-11q-15 0-25.5 10.5T1928 1969q0 14 11 24.5t25 10.5zm-324-296q-9 0-17-8t-8-17v-75h100v100h-75zm135 0v-100h100v75q0 10-7.5 17.5t-17.5 7.5h-75zm-160-160v-75q0-10 7.5-17.5t17.5-7.5h75v100h-100zm160 0v-100h75q10 0 17.5 7.5t7.5 17.5v75h-100zM589 1300h122l657-651 657 651h121q6 0 8.5-5.5t-2.5-9.5l-706-698q-29-29-45.5-38.5T1368 539q-17 0-33.5 9.5T1288 587l-705 698q-4 4-2 9.5t8 5.5zm1420 575v-78h240q17 0 27-9t10-23q0-19-17-33t-49-20q0-61-31-84t-72-23q-10-17-27-30.5t-37-13.5q-14 0-27 7l-40-60q38-26 66-26 26 0 46 15.5t31 38.5q58 4 96.5 36.5t49.5 94.5q44 13 63.5 38.5t19.5 59.5q0 42-29 76t-80 34h-240z"/></svg>