<svg viewBox="0 0 2600 2326.9506" xmlns="http://www.w3.org/2000/svg"><path d="M1027 1783q-223 0-399-93.5T374 1421q-39-88-48.5-176.5T296 1077l-66-270q-11-47-16-86.5t-5-72.5q0-142 68-252t181.5-173Q572 160 710 160q114 0 210.5 44T1091 328.5q74 80.5 120 190.5l38 91q44 103 100.5 151.5T1461 810q55 0 113.5-66.5T1727 500q293 0 483.5 80.5T2512 832l-643 443q47 23 66.5 48.5t19.5 63.5q0 43-22.5 70.5T1865 1501q-26 49-62 73.5t-91 30.5l-31 36q-47 55-106 81t-133 26q-59 0-115-17-75 22-150.5 37t-149.5 15zm-173 312q-43 0-62-9t-19-31q0-40 64-47 80-9 115-37t35-74q0-22-7.5-56t-25.5-92l88-16q17 46 26.5 99t9.5 88q0 85-57 130t-167 45zm239 145q-52 0-52-37 0-22 31.5-46t72-53.5q40.5-29.5 72-67.5t31.5-86q0-18-4-55.5t-10.5-83.5q-6.5-46-14.5-87l93-27 34 307q3 23-23 62t-67 79q-41 40-85 67.5t-78 27.5zM262 918q-40 0-80-10.5T115 881q-27-16-27-31 0-18 23.5-49.5t58-64Q204 704 237 681t52-23q28 0 58 33.5t51 82q21 48.5 21 92.5 0 22-45 37t-112 15zm430-151q-34 0-58-27t-24-66q0-38 24-65t58-27q34 0 58 27t24 65q0 39-24 66t-58 27zm335 936q49 0 98.5-7t98.5-19q-101-62-199.5-173.5T829 1229l68-40q95 157 190 263.5t185 161q90 54.5 170 54.5 56 0 99-20t80-60l54-60q58-2 84-20.5t49-73.5q42-10 54.5-19t12.5-28q0-11-7.5-25.5T1831 1324q-29-23-92-59l658-450q-37-68-128.5-120T2049 612.5Q1921 582 1774 580q-91 169-161 239.5T1461 890q-81 0-156.5-61T1177 644l-38-91q-41-99-104-169T890.5 277Q809 240 710 240q-118 0-213.5 52T345 436q-56 92-56 212 0 28 4.5 62.5T308 789l66 270q17 67 28.5 159.5T448 1389q68 153 223.5 233.5T1027 1703z"/></svg>