<svg viewBox="0 0 2600 2326.9506" xmlns="http://www.w3.org/2000/svg"><path d="M1300 1349q-340-266-493-467.5T654 505q0-98 44-176t120.5-123.5Q895 160 992 160q95 0 176.5 46.5T1300 335q50-82 132-128.5t176-46.5q97 0 173.5 45.5T1902 329q44 78 44 176 0 175-153 376.5T1300 1349zm-605 610q-91 0-164-41.5T428 1807l59-26q23 51 79 81.5t129 30.5q125 0 181-81l54 36q-35 52-97.5 81.5T695 1959zm-201-260q-31 0-49.5-26.5T426 1613q0-38 20.5-65.5T498 1520q31 0 49.5 26.5T566 1606q0 37-20.5 65t-51.5 28zm170 541q-289 0-441.5-84T70 1916q0-227 76-402t209.5-275Q489 1139 664 1139t309 99.5q134 99.5 209.5 274.5t75.5 403q0 156-152 240t-442 84zm0-80q254 0 384-62t130-182q0-204-65.5-361.5T931 1308q-116-89-267-89-150 0-266 89.5T216 1555q-66 157-66 361 0 120 130.5 182t383.5 62zm240-431q-31 0-49.5-26.5T836 1643q0-38 20.5-65.5T908 1550q31 0 49.5 26.5T976 1636q0 37-20.5 65t-51.5 28zm797 0q-31 0-51.5-28t-20.5-65q0-33 18.5-59.5t49.5-26.5q31 0 51.5 27.5t20.5 65.5q0 33-18.5 59.5T1701 1729zm208 230q-75 0-137.5-29.5T1674 1848l54-36q56 81 181 81 73 0 129.5-30.5t78.5-81.5l59 26q-30 69-102.5 110.5T1909 1959zm28 281q-289 0-442-84t-153-240q0-228 75.5-403t210-274.5Q1762 1139 1937 1139q174 0 308 100t209.5 275q75.5 175 75.5 402 0 156-152 240t-441 84zm-1-80q254 0 384-62t130-182q0-204-66-361t-181.5-246.5Q2087 1219 1936 1219t-267 89q-116 89-181.5 246.5T1422 1916q0 120 130.5 182t383.5 62zm175-461q-31 0-51.5-28t-20.5-65q0-33 18.5-59.5t49.5-26.5q31 0 51.5 27.5t20.5 65.5q0 33-18.5 59.5T2111 1699zm-811-450q292-236 429-415.5T1866 505q0-116-73-190.5T1608 240q-88 0-170 61.5T1300 465q-55-102-137.5-163.5T992 240q-112 0-185 74.5T734 505q0 149 137 328.5t429 415.5z"/></svg>