<svg viewBox="0 0 2600 2326.9506" xmlns="http://www.w3.org/2000/svg"><path d="M419 2240q-110 0-178-58t-84-164q-8-59-14.5-159.5t-9.5-221q-3-120.5-3-238.5 0-173 6.5-340T156 756q11-122 78.5-188.5T415 501h1770q113 0 181 66.5t78 188.5q12 136 19 303t7 340q0 118-3.5 238.5t-9.5 221q-6 100.5-14 159.5-14 106-83 164t-179 58H419zm706-605h350v-170h-350v170zm-80 80v-580h510v580h-510zm-626 445h1762q160 0 183-154 9-62 15-165.5t8.5-221q2.5-117.5 2.5-220.5 0-89-2-176t-6-169q-40 105-136 185.5T1972 1369q-178 49-466 63v-79q235-10 399-47.5t265-107.5q101-70 147.5-177.5T2364 762q0-90-48.5-135.5T2185 581H415q-82 0-130.5 45.5T236 762q0 151 46.5 259t148 178q101.5 70 265 107t397.5 47v79q-287-14-465-63t-274-129.5Q258 1159 218 1054q-4 82-6 169t-2 176q0 103 3 220.5t8.5 221Q227 1944 236 2006q23 154 183 154zm706-775h350v-170h-350v170zM970 525V298h80v227h-80zm32-142q-23 0-38-17t-15-44q0-69 100.5-115.5T1301 160q151 0 250.5 46.5T1651 322q0 27-15 44t-38 17q-14 0-34-10-64-32-122-45.5T1301 314q-85 0-142.5 13.5T1036 373q-20 10-34 10zm548 142V298h80v227h-80z"/></svg>