<svg viewBox="0 0 2600 2326.9506" xmlns="http://www.w3.org/2000/svg"><path d="M1300 2240l-950-522V638l950-528 950 528v1080l-950 522zm-617-502l-178-98v-43l178 98v43zm-126-152l-36-20v-126l36 19v127zm370 287l-178-99v-43l178 99v43zm-259-226l-36-20v-126l36 19v127zm-85-161l-87-48 44-38 43 86zm276 333l-36-23v-137l36 17v143zm-165-271l-87-49 44-38 43 87zm203 157q-62 0-104-56.5T751 1510l211 111q0 40-16.5 62t-48.5 22zm363 422v-937L430 730v940l830 457zm80 0l830-457V730l-257 143-36-72 250-139-827-461-827 461 827 458 240-133 39 71-239 132v937zm189-631v-472L655 509l78-45 876 514v329l47-65 90 27 77-115 46 15V843L977 321l79-46 893 522v480l-92-29-74 114-107-31-147 165z"/></svg>