<svg viewBox="0 0 2600 2326.9506" xmlns="http://www.w3.org/2000/svg"><path d="M319 2140q-65 0-112-47.5T160 1979V563q0-66 47-113.5T319 402h1962q65 0 112 47.5t47 113.5v1416q0 66-47 113.5t-112 47.5H319zm1164-61q-126 0-237-47.5t-194.5-131Q968 1817 920.5 1706T873 1469q0-127 47-237.5t131-194.5q84-84 194.5-131.5T1483 858q117 0 226 48t196 132.5q87 84.5 137.5 195T2093 1469q0 126-47 237t-131 194.5q-84 83.5-194.5 131T1483 2079zm0-122q135 0 246.5-66t177.5-177q66-111 66-245 0-135-66-246t-177.5-177Q1618 980 1483 980q-134 0-245.5 66t-178 177Q993 1334 993 1469q0 134 66.5 245t178 177q111.5 66 245.5 66zm0-147q-93 0-170-46.5t-123-124q-46-77.5-46-170.5 0-94 46-171t123-123.5q77-46.5 170-46.5 97 0 173.5 43.5T1778 1292q45 77 45 177 0 94-45.5 171.5T1655 1764q-77 46-172 46zM319 2060h1962q33 0 56-23.5t23-57.5v-66h-503v-80h503V988h-706v-80h706V563q0-34-23-57.5t-56-23.5H319q-33 0-56 23.5T240 563v345h1030v80H240v845h854v80H240v66q0 34 23 57.5t56 23.5zm76-1610V340q0-80 80-80h297q80 0 80 80v110H395zm998 332q-22 0-38-16t-16-38v-99q0-23 16-38.5t38-15.5h180q23 0 38.5 15.5T1627 629v99q0 22-15.5 38t-38.5 16h-180zm534 30q-24 0-41-17t-17-40V635q0-23 17-40t41-17h222q24 0 41 17t17 40v120q0 23-17 40t-41 17h-222z"/></svg>