<svg viewBox="0 0 2600 2326.9506" xmlns="http://www.w3.org/2000/svg"><path d="M319 2240q-65 0-112-47.5T160 2079V668q0-66 47-113.5T319 507h781l33 80H319q-33 0-56 24t-23 57v352h1014v80H240v833h854v80H240v66q0 34 23 57.5t56 23.5h1962q33 0 56-23.5t23-57.5v-66h-499v-80h499v-833h-497v-80h497V668q0-33-23-57t-56-24h-178l92-80h86q65 0 112 47.5t47 113.5v1411q0 66-47 113.5t-112 47.5H319zm1164-55q-126 0-237-47.5T1051.5 2006q-83.5-84-131-195T873 1574q0-133 52-248t143-200q91-85 209-127l25 122q-90 36-160 103.5t-109.5 157Q993 1471 993 1574q0 134 66.5 245t178 177q111.5 66 245.5 66 135 0 246.5-66t177.5-177q66-111 66-245 0-128-60-234t-161-174q-101-68-226-78l59-54 216 61q62 33 115.5 82.5t93 112.5q39.5 63 61.5 135t22 149q0 126-47 237t-131 195q-84 84-194.5 131.5T1483 2185zm0-270q-93 0-170-46t-123-123.5q-46-77.5-46-171.5 0-97 50-177t129-123l36 80 60-107q12-5 29.5-9.5t33.5-4.5q97 0 174 43.5t122 120.5q45 77 45 177 0 94-45.5 171.5T1655 1869q-77 46-172 46zM395 552V445q0-80 80-80h297q80 0 80 80v107H395zm928 976l-78-479H553l593-296-200-587 485 377 272-383 14 414 644-166-543 483 166 310-404-123-257 450zm44-236l174-308 281 84-104-197 329-290-406 95-10-276-182 255-333-248 131 386-354 176h420l54 323zm560-375q-24 0-41-17t-17-40v-60l130-117h150q24 0 41 17t17 40v120q0 23-17 40t-41 17h-222zm-256-330v-80h436l-121 80h-315z"/></svg>