<svg viewBox="0 0 2600 2326.9506" xmlns="http://www.w3.org/2000/svg"><path d="M251 2240v-412l784-779q-35-102-35-215 0-140 52.5-262t145-214.5q92.5-92.5 215-145T1674 160q140 0 262.5 52.5t215 145q92.5 92.5 145 214.5t52.5 262q0 139-52.5 261.5t-145 215q-92.5 92.5-214.5 145t-262 52.5q-113 0-217-36l-189 189h-165l-60 209-217 13-14 228-128 129H251zm81-80h320l84-84 17-269 230-13 61-213h192l202-203q113 50 237 50 123 0 230.5-46t189.5-128q82-82 128-189.5t46-230.5q0-123-46-231t-127.5-189.5Q2014 332 1906 286t-232-46q-123 0-230.5 46T1254 414q-82 82-128 189.5T1080 834q0 125 48 235l-797 792v218l937-931 41 41-977 971zM1775 946q-58 0-106.5-28.5t-77.5-77q-29-48.5-29-106.5 0-59 29-107t77.5-77q48.5-29 106.5-29 59 0 107 29t77 77q29 48 29 107 0 58-28.5 106.5t-77 77Q1834 946 1775 946zm0-80q56 0 94.5-38.5T1908 734q0-54-39.5-93.5T1775 601q-54 0-93.5 39.5T1642 734q0 55 39 93.5t94 38.5z"/></svg>