<svg viewBox="0 0 2601 2335.392" xmlns="http://www.w3.org/2000/svg"><path d="M1300 1850q-180 0-336-65t-273.5-180.5q-117.5-115.5-184-270T440 1000q0-179 66-333.5T689.5 396Q807 280 963 215t337-65q181 0 337 65t273.5 181Q2028 512 2094 666.5t66 333.5q0 178-66 332.5t-183.5 271Q1793 1720 1637 1785t-337 65zm0 400q-123 0-247.5-33.5t-220-90Q737 2070 700 2002l115-387 111 49-93 308q44 46 120 83t167 58.5q91 21.5 180 21.5 90 0 181-21.5t167-58q76-36.5 120-82.5l-94-309 111-49 115 387q-36 68-132 124.5t-220.5 90Q1423 2250 1300 2250zm-11-589h12q17-99 40-152.5t69-81q46-27.5 131-46.5v-12q-85-20-131-47t-69-81q-23-54-40-152h-12q-16 98-39.5 152t-69.5 81q-46 27-131 47v12q85 19 131 46.5t69.5 81Q1273 1562 1289 1661zm-559-652q25 0 45-16t22-41q8-88 42-167t89-140q17-20 18.5-42.5T931 561q-18-20-43.5-22.5T844 554q-75 73-124.5 180.5T670 944q0 28 16 46.5t44 18.5zm371-491q25-11 51.5-18t52.5-11q24-4 39.5-19.5T1260 430q0-27-18.5-44.5T1194 371q-79 9-146 41-25 12-31 35.5t6 46.5q12 24 34 28.5t44-4.5zm489 755h12q18-124 41-202t60.5-124.5q37.5-46.5 99.5-74t159-49.5v-12q-97-23-159-50t-99.5-73.5Q1666 641 1643 563t-41-202h-12q-18 124-41 202t-60.5 124.5Q1451 734 1389 761t-159 50v12q97 22 159 49.5t99.5 74Q1526 993 1549 1071t41 202z"/></svg>