<svg viewBox="0 0 2600 2326.9506" xmlns="http://www.w3.org/2000/svg"><path d="M1300 2240q-203-69-363-222t-272-378q-112-225-171-511t-59-620v-70q305-21 528-94t337-185q114 112 337 185t528 94v70q0 334-59 620t-171 511q-112 225-272 378t-363 222zm0-84q183-69 328.5-216.5t247-360.5q101.5-213 155.5-482.5t54-583.5q-244-20-450-84t-335-163q-129 99-334.5 163T515 513q0 314 53.5 583.5T724 1579q102 213 247.5 360.5T1300 2156zm0-194q-147-61-261-186t-193-299.5Q767 1302 725.5 1093T682 655q204-22 355-69.5T1300 453q113 85 263.5 132.5T1918 655q-1 229-42.5 438T1755 1476.5q-79 174.5-193.5 299.5T1300 1962zm0-77V540q-104 69-237.5 111T754 717q8 282 77 519t189 405q120 168 280 244z"/></svg>