<svg viewBox="0 0 2600 2326.9506" xmlns="http://www.w3.org/2000/svg"><path d="M1173 2240q-83 0-161-25.5T872 2145q-62-44-98-99t-36-114q0-72 45.5-162T896 1606q-36 5-65.5 7.5T772 1616q-78 0-144.5-34t-136-115.5Q422 1385 334 1244q-74-120-119-202t-65-136q-20-54-20-88 0-49 36-69.5T287 728q100 0 238 29t289.5 85.5Q966 899 1111.5 981t260.5 187l-42 44q-102-93-239-168.5t-282.5-129Q663 861 532.5 832T312 803q-49 0-70 13.5T221 855q0 20 14 54t52 101q38 67 111 185 67 108 116 175.5t91 103q42 35.5 87 49t104 13.5q74 0 132.5-5t124.5-12q-89 108-140.5 184.5t-73 130Q818 1887 818 1926q0 61 49 114.5t129 86.5q80 33 171 33 86 0 135.5-27t80.5-102.5q31-75.5 59-220.5l34 75q-15 185-87.5 270t-215.5 85zm-289-284q-12 0-20.5-8.5T855 1927q0-12 8.5-20.5t20.5-8.5q12 0 20.5 8.5t8.5 20.5q0 12-8.5 20.5T884 1956zm173 122q-12 0-20.5-8.5t-8.5-20.5q0-12 8.5-20.5t20.5-8.5q12 0 20.5 8.5t8.5 20.5q0 12-8.5 20.5t-20.5 8.5zm-122-242q-12 0-20.5-8.5T906 1807q0-12 8.5-20.5t20.5-8.5q12 0 20.5 8.5t8.5 20.5q0 12-8.5 20.5T935 1836zm86 123q-18 0-33-13t-15-33q0-33 36.5-74t94.5-66q0 85-24.5 135.5T1021 1959zm185 112q-34 0-56.5-21t-22.5-56q0-38 27.5-77.5t79.5-56.5q26 25 38 56.5t12 60.5q0 38-20 66t-58 28zM380 1032q-12 0-20.5-8.5T351 1003q0-12 8.5-20.5T380 974q12 0 20.5 8.5t8.5 20.5q0 12-8.5 20.5T380 1032zm-42-93q-17 0-29-12t-12-29q0-17 12-29t29-12q17 0 29 12t12 29q0 17-12 29t-29 12zm323 362q-50 9-80-5t-30-55q0-40 38.5-57t80.5-17q43 0 91 21t128 73l-228 40zm-115-179q-40 7-67.5-4t-27.5-48q0-27 19-40.5t47-13.5q36 0 78 21.5t69 63.5l-118 21zm511 596q-13 0-22.5-9t-9.5-24q0-35 49-87.5t128-91.5q-42 101-78.5 156.5T1057 1718zm286 207q-17 0-26-30.5t-9-69.5q0-33 6.5-65t20.5-51q19 29 28 69t9 75q0 24-6 48t-23 24zM473 938q-13 0-23-10t-10-23q0-14 10-23.5t23-9.5q14 0 23.5 9.5T506 905q0 13-9.5 23T473 938zm421 525q-79 10-124-1.5t-45-42.5q0-32 33-52.5t79-30q46-9.5 86-9.5 69 0 147.5 24.5T1231 1419l-337 44zm311 325q-22 0-33-15t-11-38q0-46 37-114.5t99-128.5q2 16 2.5 32t.5 31q0 100-27.5 166.5T1205 1788zM592 972q-12 0-20.5-8.5T563 943q0-12 8.5-20.5T592 914q12 0 20.5 8.5T621 943q0 12-8.5 20.5T592 972zm969 1151q-24 0-56.5-64.5t-64-174.5q-31.5-110-55.5-248-14-84-22.5-161t-12.5-141l138-24q20 61 37.5 136.5T1558 1605q19 106 28.5 199.5t9.5 164.5q0 69-9 111.5t-26 42.5zm-343-811l-296-136q-86-40-145-87.5t-59-77.5q0-13 10.5-18.5T755 987q40 0 96.5 21t117 56.5q60.5 35.5 115 78t91 87q36.5 44.5 43.5 82.5zm479 554q-17 0-32.5-24.5T1639 1779q-10-38-10-76 0-11 1-22t3-21q22 14 40 45t29.5 66q11.5 35 11.5 61 0 34-17 34zm154 94q-37 0-62-36.5t-25-84.5q0-38 16-73 66 0 109 37.5t43 80.5q0 32-26 54t-55 22zm-85-269q-43 0-93.5-70t-78.5-179q60 27 109 64.5t77.5 75q28.5 37.5 28.5 66.5 0 20-13.5 31.5T1766 1691zm248 215q-12 0-20.5-8.5t-8.5-20.5q0-12 8.5-20.5t20.5-8.5q12 0 20.5 8.5t8.5 20.5q0 12-8.5 20.5t-20.5 8.5zm-601-534q-47 0-76-33.5t-42-84.5q-13-51-13-102 0-131 112-131 46 0 74.5 34t42 84.5Q1524 1190 1524 1240q0 62-27.5 97t-83.5 35zm585 416q-30 0-65-39t-63-109q72 4 123 35.5t51 66.5q0 18-14 32t-32 14zm-114-216q-31 0-80.5-39T1687 1422q64 7 116 26.5t83.5 44.5q31.5 25 31.5 48 0 10-8 20-9 11-26 11zm-621-613q18 0 30.5-13t12.5-34q0-17-8.5-28.5T1272 872q-21 0-32 14.5t-11 31.5q0 16 9.5 28.5T1263 959zm83 164q-75 0-118-54t-43-125q0-75 53.5-118t125.5-43q74 0 117.5 52.5T1525 961q0 75-53 118.5t-126 43.5zm779 618q-12 0-20.5-8.5t-8.5-20.5q0-12 8.5-20.5t20.5-8.5q12 0 20.5 8.5t8.5 20.5q0 12-8.5 20.5t-20.5 8.5zm-83-100q-12 0-20.5-8.5t-8.5-20.5q0-12 8.5-20.5t20.5-8.5q12 0 20.5 8.5t8.5 20.5q0 12-8.5 20.5t-20.5 8.5zm-794-789q-10-84-47.5-166.5T1108 536q-55-67-117.5-107T868 389v17q0 38-21 62.5T794 493q-39 0-62-23t-23-60q0-45 40.5-74T854 307q73 0 148 43t140.5 116q65.5 73 111 165t59.5 190l-65 31zm180 77q35 0 35-36 0-18-12.5-33t-32.5-15q-15 0-26 10t-11 27q0 22 15.5 34.5T1428 929zm205 420q104-113 198-164t197-51q82 0 82 51 0 27-38.5 51t-106.5 39l-332 74zm210 777q-88 0-157.5-58.5T1561 1888l15-82q63 98 103.5 150t74 71q33.5 19 72.5 19 62 0 127.5-28.5T2075 1943q56-46 90.5-100t34.5-105q0-51-41.5-108t-125-119.5Q1950 1448 1824 1379q116-28 195-54t130-60q51-34 84-86t56.5-131.5Q2313 968 2337 852q26-123 40-203t14-125q0-38-16-60t-40-22q-57 0-147.5 48.5t-196 129.5Q1886 701 1782 800t-188.5 201.5Q1509 1104 1462 1193l-49-33q56-107 147.5-220t203-217q111.5-104 227-186.5t219-131Q2313 357 2388 357q41 0 61.5 32.5T2470 496q0 61-14 153t-41 223q-32 156-62 252t-71.5 151q-41.5 55-107.5 85.5t-171 54.5q76 29 138.5 81.5t100 114Q2279 1672 2279 1729q0 68-39.5 138T2136 1995.5q-64 58.5-141 94.5t-152 36zm-235-882q-1-10-1.5-14.5t-.5-8.5q0-62 47.5-148T1789 893q50-54 94-85.5t69-31.5q25 0 25 27 0 34-39 94t-98 119l-232 228zm291-162q52-68 91-106.5t74.5-54Q2100 906 2141 906q75 0 75 67 0 54-89 69l-228 40zm-469-267l-72-3q-4-41-7-71.5t-3-58.5q0-91 24.5-183t69-169q44.5-77 106-123.5T1682 160q51 0 78.5 23t27.5 67q0 38-23.5 58.5T1706 329q-35 0-55.5-21t-28.5-55q-57 13-103 81.5T1445.5 497q-27.5 94-27.5 186 0 29 3 60t9 72zm627 39q12-54 55-95t87-41q23 0 37.5 15.5T2251 775q0 47-76 59l-118 20zm15-141q-12 0-20.5-8.5T2043 684q0-12 8.5-20.5t20.5-8.5q12 0 20.5 8.5t8.5 20.5q0 12-8.5 20.5T2072 713zm98-74q-13 0-23-10t-10-23q0-14 10-23.5t23-9.5q14 0 23.5 9.5t9.5 23.5q0 13-9.5 23t-23.5 10zm120 54q-12 0-20.5-8.5T2261 664q0-12 8.5-20.5t20.5-8.5q12 0 20.5 8.5t8.5 20.5q0 12-8.5 20.5T2290 693zm5-102q-17 0-29-12t-12-29q0-17 12-29t29-12q17 0 29 12t12 29q0 17-12 29t-29 12z"/></svg>