<svg viewBox="0 0 2600 2326.9506" xmlns="http://www.w3.org/2000/svg"><path d="M1885 2240q-145 0-259.5-111.5T1457 1828q-24-84-59-145t-75-96q-61-54-117-80.5t-114-46.5q-53-19-106.5-44T876 1342q-64-58-103.5-140.5T706 995q-112-98-172.5-199.5T473 593q0-70 24-145.5t63.5-141q39.5-65.5 86-106T738 160q46 0 101.5 42.5T946 311q51 66 84 138.5t33 132.5q0 36-3 83t-3 66q0 19 4 34 6 7 32.5 22t89.5 42q130 56 225 112t161 125.5q66 69.5 110 163.5t72.5 224.5Q1780 1585 1801 1765q11 91 37.5 135t60.5 44q29 0 40-24.5t11-62.5q0-28-9-60.5t-26-61.5q19-5 30-7t23-2q63 0 114 32.5t81.5 86.5q30.5 54 30.5 121 0 79-40.5 141t-110 97.5Q1974 2240 1885 2240zm-901-390q-17 0-29.5-12.5T942 1809q0-17 12.5-29t29.5-12q18 0 30.5 12t12.5 29q0 16-12.5 28.5T984 1850zm85 75q-17 0-29.5-12.5T1027 1884q0-17 12.5-29t29.5-12q18 0 30.5 12t12.5 29q0 16-12.5 28.5T1069 1925zm-586-585q-16 0-28.5-12.5T442 1297q0-17 12.5-29.5T483 1255q17 0 29 12.5t12 29.5q0 18-12 30.5t-29 12.5zm-36-101q-16 0-28.5-12.5T406 1196q0-17 12.5-29.5T447 1154q17 0 29 12.5t12 29.5q0 18-12 30.5t-29 12.5zm727 708q-17 0-29.5-12.5T1132 1906q0-17 12.5-29t29.5-12q18 0 30.5 12t12.5 29q0 16-12.5 28.5T1174 1947zm-203-214q-17 0-29.5-12.5T929 1692q0-17 12.5-29t29.5-12q18 0 30.5 12t12.5 29q0 16-12.5 28.5T971 1733zm125 152l-36-18 69-121-124 79-24-28 104-81-96 7-12-54 231 3-17 210-30-3v-115l-65 121zm-595-732q-16 0-28.5-12.5T460 1110q0-17 12.5-29.5T501 1068q17 0 29 12.5t12 29.5q0 18-12 30.5t-29 12.5zm234 259q-61 0-100.5-33.5T573 1287l-79-3 2-23 52-17-77-35 5-22 75 15-48-64 32-14 46 56 5-83 26 5 30 149 70 45 92-146 101 116q-19 25-54.5 59.5T782 1386q-33 26-47 26zm-134-297q-16 0-28.5-12.5T560 1072q0-17 12.5-29.5T601 1030q17 0 29 12.5t12 29.5q0 18-12 30.5t-29 12.5zm568 676l-8-57-123-44q26 0 42.5-7.5t16.5-24.5q0-12-10.5-24t-23.5-23q-12-11-22-21.5t-10-20.5q0-14 22.5-36.5t53.5-47q31-24.5 57-41.5l222 127q-59 0-118 11.5t-94 24.5q119 62 119 110 0 22-23 38.5t-52 26q-29 9.5-49 9.5zm382 54q-22 0-38.5-16.5T1496 1790q0-22 16.5-38t38.5-16q22 0 38 16t16 38q0 22-16 38.5t-38 16.5zm-420-459q-22 0-38.5-16.5T1076 1331q0-22 16.5-38t38.5-16q22 0 38 16t16 38q0 22-16 38.5t-38 16.5zm-319-341q-22 0-38.5-16.5T757 990q0-22 16.5-38t38.5-16q22 0 38 16t16 38q0 22-16 38.5t-38 16.5zm249 131q-22 0-38.5-16.5T1006 1121q0-22 16.5-38t38.5-16q22 0 38 16t16 38q0 22-16 38.5t-38 16.5zM623 631q-31 0-53.5-22.5T547 555q0-32 22.5-54t53.5-22q32 0 54 22t22 54q0 31-22 53.5T623 631zm808 765q-22 0-38.5-16.5T1376 1341q0-22 16.5-38t38.5-16q22 0 38 16t16 38q0 22-16 38.5t-38 16.5zm220 189q-22 0-38.5-16.5T1596 1530q0-22 16.5-38t38.5-16q22 0 38 16t16 38q0 22-16 38.5t-38 16.5zm234 575q101 0 166-55.5t65-138.5q0-66-43.5-115t-104.5-61l31-6q14 31 19 57.5t5 53.5q0 43-34 86t-90 43q-71 0-117.5-70.5T1722 1774q-24-210-58.5-348.5T1569 1195q-60-92-160.5-159T1152 903q-65-28-98.5-50.5T1001 811q-12-13-17-31.5t-5-42.5q0-12 1-35.5t2-54.5q1-31 1-65 0-42-27-100t-67-113q-40-55-81-92t-70-37q-25 0-56.5 35t-61 89.5Q591 419 572 480t-19 113q0 169 223 357 32 135 64.5 209t89.5 124q47 42 91.5 63t97.5 39q59 19 123 50t134 92q51 45 92 117.5t66 161.5q47 166 141.5 260t209.5 94zm-554-964q-22 0-38.5-16.5T1276 1141q0-22 16.5-38t38.5-16q22 0 38 16t16 38q0 22-16 38.5t-38 16.5zM893 581q-31 0-53.5-22.5T817 505q0-32 22.5-54t53.5-22q32 0 54 22t22 54q0 31-22 53.5T893 581zm468 350l-157-72 32-150 75-31q29 69 37.5 130t12.5 123zm347 463l-98-219q0-38 28-50t69-12q35 0 76 4.5t75 13.5l95 5q8 13 8 26 0 19-16 40t-37 26l-191 40-9 126zm-545-733q-16 0-28.5-12.5T1122 618q0-17 12.5-29.5T1163 576q17 0 29 12.5t12 29.5q0 18-12 30.5t-29 12.5zm116 114l-131-141 32-26 54 37-15-105 39-5 21 75 29-69 36 14-21 80 49-37 10 28-103 149zm-44-204q-16 0-28.5-12.5T1194 528q0-17 12.5-29.5T1235 486q17 0 29 12.5t12 29.5q0 18-12 30.5t-29 12.5zm562 501q-17 0-29.5-12t-12.5-31q0-20 12.5-32t29.5-12q17 0 29.5 12t12.5 32q0 19-12.5 31t-29.5 12zm-392-431q-16 0-28.5-12.5T1364 598q0-17 12.5-29.5T1405 556q17 0 29 12.5t12 29.5q0 18-12 30.5t-29 12.5zm-70-80q-16 0-28.5-12.5T1294 518q0-17 12.5-29.5T1335 476q17 0 29 12.5t12 29.5q0 18-12 30.5t-29 12.5zm585 630l-125-132 24-30 64 67-6-125 29-7 16 84 37-71 24 8-33 102 63-50 16 32-109 122zm-38-199q-17 0-29.5-12t-12.5-31q0-20 12.5-32t29.5-12q17 0 29.5 12t12.5 32q0 19-12.5 31t-29.5 12zm163 90q-17 0-29.5-12t-12.5-31q0-20 12.5-32t29.5-12q17 0 29.5 12t12.5 32q0 19-12.5 31t-29.5 12zm-60-86q-17 0-29.5-12t-12.5-31q0-20 12.5-32t29.5-12q17 0 29.5 12t12.5 32q0 19-12.5 31t-29.5 12z"/></svg>