<svg viewBox="0 0 2600 2326.9506" xmlns="http://www.w3.org/2000/svg"><path d="M1750 2090q-92 0-160.5-24.5t-120-61.5q-51.5-37-92-73.5t-76-61Q1266 1845 1229 1845q-36 0-108 14.5T962 1874q-179 0-282.5-92T576 1521q0-91 43-164t115-116q72-43 159-43 74 0 141 32.5t113 88.5l-65 48q-73-89-189-89-64 0-118 32t-86.5 87q-32.5 55-32.5 124 0 135 79 204t225 69q91 0 145-28.5t54-75.5q0-39-35.5-65.5T1033 1598q-40 0-71 25.5t-39 64.5l-68-14q12-64 62.5-105t115.5-41q50 0 92.5 20t68.5 54q33-50 93-81.5t129-31.5q52 0 102 25l-32 62q-36-17-70-17-47 0-89 20t-68 52q-26 32-26 69 0 42 61 69t155 27q79 0 147.5-21.5t126-49.5q57.5-28 105-49.5t83.5-21.5q34 0 72 17t80.5 34.5q42.5 17.5 88.5 17.5 66 0 110.5-45t67-120q22.5-75 22.5-165 0-94-24-174.5t-74-135.5v-42q0-113-43.5-200.5t-121-138Q2012 652 1911 652l-4-67q14 0 30 1t32 3q-36-59-105.5-103.5t-161-70Q1611 390 1508 390q-132 0-249 42-90-17-173-17-150 0-286.5 51T586 599q-90 29-155 80.5T330.5 793Q295 855 295 919q0 71 43 117.5t108 46.5q44 0 68-17.5t24-50.5q0-36-23.5-64T467 894q-24-29-24-68 0-48 48-96l56 58q-24 23-24 38 0 21 24 46t47.5 59q23.5 34 23.5 84 0 66-48 107t-124 41q-64 0-116.5-32.5t-83.5-88Q215 987 215 919q0-82 45-160t120.5-139Q456 559 549 529q89-91 232-142.5t305-51.5q83 0 167 15 123-40 255-40 131 0 245 37t196 102q82 65 115 151 123 55 197.5 170t74.5 273v13q49 65 72.5 152t23.5 185q0 108-28.5 195t-82.5 143q-54 56-132 70-58 133-173 211t-266 78zM564 1608q-109 0-199-53t-143.5-141.5Q168 1325 168 1217q0-57 19-112.5T244 995l66 46q-62 87-62 176 0 86 42.5 156.5T405 1486q72 42 159 42 25 0 60-5l14 78q-36 7-74 7zm-141-232q-30-68-30-134t26-139l66 24q-22 60-22 115 0 53 24 104l-64 30zm774 280l-46-71 100-7-54 78zm-35-44q-97 0-174.5-40.5T882 1464l64-28q20 46 80 76t136 30q92 0 157.5-42.5T1385 1399q0-55-60-95l40-58q90 62 90 153 0 59-39.5 107.5t-106 77Q1243 1612 1162 1612zm-351-517l-56-42q34-46 34-110 0-65-34.5-110.5T673 787v-70q77 0 131.5 66.5T859 943q0 87-48 152zm690 429l-97-24 34-73 92 22-29 75zM916 961q-84 0-134-72l58-40q28 42 76 42 31 0 58-21l44 54q-43 37-102 37zm115 315l-62-32q55-108 149.5-166.5T1311 1019q59 0 115 23t99 71l-52 46q-33-36-75-53.5t-88-17.5q-79 0-156 49t-123 139zm507 444q-75-61-75-156 0-72 62.5-122.5T1674 1391q92 0 146.5 41t54.5 112q0 29-9 58l-67-21q6-18 6-37 0-83-131-83-58 0-99.5 31t-41.5 72q0 58 44 97l-39 59zM962 738q-11-52-61.5-86T784 618q-61 0-110 31l-38-58q66-43 148-43 90 0 160 49t86 125l-68 16zm332 349q-76-14-125-82.5T1120 847q0-33 5-53l68 14q-3 16-3 39 0 64 33.5 113t84.5 59l-14 68zm275 386q-87 0-159-50l40-58q55 38 119 38 72 0 115-45t43-116q0-36-8-87l68-12q10 51 10 99 0 100-63.5 165.5T1569 1473zM865 632q-28-20-46.5-58T800 498q0-43 23.5-80t62.5-56l32 62q-48 24-48 74 0 22 10.5 44t24.5 32l-40 58zm226 262l-28-64q59-26 90.5-87.5T1185 623q0-42-17-74.5t-54-41.5l18-68q62 16 92 68.5t30 117.5q0 78-41.5 155.5T1091 894zm1079 696q0-53-39-91t-94-38q-40 0-88.5 21.5T1870 1534l-50-48q39-41 102-68t115-27q83 0 143 58t60 141h-70zm-770-728l-52-48q29-31 29-72 0-26-22.5-44t-56.5-18q-38 0-67 11l-26-64q41-17 93-17 62 0 105.5 38.5T1447 742q0 68-47 120zm494 222q-25-89-80.5-137.5T1681 898q-56 0-108 24t-87.5 64q-35.5 40-45.5 88l-68-14q13-65 58.5-117.5T1542 859q66-31 139-31 101 0 175.5 63t105.5 175l-68 18zm-289-365l-62-32q11-23 15-42t4-35q0-45-44.5-70.5T1372 498l10-70q128 20 189.5 64t61.5 115q0 25-6 52.5t-22 59.5zm668 643q-56-4-96-45.5t-40-98.5q0-8 1-17t3-16l68 16q-2 10-2 17 0 28 19 49.5t47 24.5v70zm-212-98q-67 0-136-27l26-66q55 23 110 23 66 0 115.5-37t81.5-102l62 30q-40 83-106.5 131t-152.5 48zm-139-284q-42 0-83-15l24-66q31 11 59 11 78 0 96-107l70 12q-13 79-56.5 122T1922 980zm-123-277q-105-2-178-52.5T1548 528q0-45 25-81.5t67-58.5q42-22 92-22 31 0 65 9v73q-36-14-68-14-44 0-77.5 28t-33.5 66q0 40 54 71.5t127 33.5v70zm-45 1314q16 0 33.5-.5t50.5-4.5q-101-29-176-63t-137-95q-13-13-30-13-16 0-30.5 12.5T1450 1883q0 18 18 36 29 29 78 51t104.5 34.5Q1706 2017 1754 2017zm165-31q27-12 53-28.5t45-32.5q-76-24-135.5-51.5T1750 1800q-13-9-29-9-15 0-27 12.5t-12 28.5q0 22 24 38 62 43 116 71t97 45zm151-124q14-19 26-38t21-38q-66-8-106-33t-68-25q-17 0-29 11t-12 28q0 21 31.5 41t71.5 34.5q40 14.5 65 19.5z"/></svg>