<svg viewBox="0 0 2600 2326.9506" xmlns="http://www.w3.org/2000/svg"><path d="M1759 1990q-163 0-356-66t-423-220l-60-40q-152-102-243.5-144.5T525 1477q-40 0-67.5 11.5t-58 22.5q-30.5 11-81.5 11-116 0-188-77t-72-204q0-143 99-221t274-78q152 0 322 71.5t400 221.5l60 39q137 89 226.5 145.5t148.5 88q59 31.5 100.5 43.5t81.5 12q93 0 145-39.5t52-110.5q0-42-26.5-80t-93-80q-66.5-42-187.5-96l-65-29q-184-82-270-176.5T1239 734q0-148 105.5-236t284.5-88q110 0 223 22t221.5 44q108.5 22 206.5 22 50 0 79-5t60-5q50 0 86.5 21.5T2542 581q0 85-97.5 131T2165 758q-70 0-146-9t-146.5-17.5Q1802 723 1750 723q-36 0-51 8.5t-15 17.5q0 13 31.5 31t102.5 50l119 54q216 98 330 235.5t114 319.5q0 158-78 283t-218 196.5q-140 71.5-326 71.5zM305 1360q-27 0-50-14t-23-29q0-17 17-17 7 0 23 6t34 6q20 0 33.5-5.5t25.5-5.5q17 0 17 17 0 16-24 29t-53 13zm-107-106q-18 0-30.5-14.5T155 1203q0-22 12.5-36.5T198 1152q18 0 30.5 14.5T241 1203q0 22-12.5 36.5T198 1254zm189 0q-18 0-30.5-14.5T344 1203q0-22 12.5-36.5T387 1152q18 0 30.5 14.5T430 1203q0 22-12.5 36.5T387 1254zm357 278l-31-63q53-25 97.5-76t73.5-116q29-65 35-131l70 6q-7 78-41 153.5T861 1441q-53 60-117 91zm638 401q-40 0-111-30t-156-82q-85-52-167-117-8-6-8-13 0-17 27.5-43t66-64.5q38.5-38.5 71.5-90.5 32-50 52-100t36.5-84q16.5-34 35.5-34 6 0 14 5l334 207q23 14 34 47.5t11 65.5q0 46-21.5 103t-56.5 109.5q-35 52.5-77.5 86.5t-84.5 34zm377-21q161 0 283-60.5t190.5-167Q2301 1578 2301 1439q0-152-96.5-276T1904 952l-119-51q-50-22-91.5-42.5T1628 812q-24-26-24-63 0-56 44.5-80t101.5-24q45 0 120.5 8.5t156 17.5q80.5 9 138.5 9 140 0 220-26.5t80-63.5q0-24-46-24-43 0-67.5 5t-71.5 5q-68 0-152.5-13T1954 533q-89-17-173-30t-152-13q-146 0-228 65.5T1319 734q0 97 71.5 174.5T1625 1057l67 29q128 55 206 104.5t113.5 102.5q35.5 53 35.5 120 0 107-76 167.5t-201 60.5q-46 0-90-10.5t-105-41.5q-61-31-157-91t-248-159l-60-39q-154-101-274.5-162.5t-218-89.5q-97.5-28-186.5-28-143 0-218 57t-75 164q0 95 49.5 149t130.5 54q39 0 69.5-11t62.5-22.5q32-11.5 75-11.5 77 0 178 47t259 153l60 40q206 137 389 205t348 68zm294-20q0-98-38-170t-107-107l32-62q87 44 135 133t48 206h-70zM1644 821q-37-39-89-61t-108-22q-55 0-89 21.5t-34 51.5h-70q0-67 58.5-104t135.5-37q63 0 128.5 24.5T1694 772l-50 49zm33 318q-8-25-8-54 0-82 63.5-138t148.5-56q54 0 105 26l-32 55q-37-18-73-18-58 0-100 40.5t-42 90.5q0 18 5 33l-67 21zm355 201l-68-19q21-77 76-118t122-41q49 0 98 23.5t88 72.5l-55 44q-27-34-61-52t-70-18q-48 0-82 29t-48 79zm-190-645l-68-18q9-31 9-58 0-71-53-131l53-46q70 80 70 177 0 34-11 76z"/></svg>