<svg viewBox="0 0 2601 2335.392" xmlns="http://www.w3.org/2000/svg"><path d="M576 2128v-828H377q-23 0-37.5-48T325 1127q0-77 14.5-125t37.5-48h91v-37.5q0-22.5 1-37.5 22-3 49-5t61-2V695q-88-8-147.5-16.5T349 660q-36-15-78.5-68T189 470q-39-69-64-133.5T100 234q0-38 20.5-61t52.5-23q12 0 29 5t60 21q219 79 479.5 121.5T1301 340q298 0 558-42.5T2338 176q44-16 60.5-21t28.5-5q32 0 52.5 23t20.5 61q0 38-25 102.5T2411 470q-39 69-81.5 122t-78.5 68q-23 10-82 18.5T2021 695v177q34 0 61 2t49 5q1 15 1 37.5V954h91q23 0 37.5 48t14.5 125q0 77-14.5 125t-37.5 48h-199v828h-286v-828H862v828H576zm143 122q-34 0-75-2.5t-110-9.5q-9-59-9-123 0-34 2.5-65t6.5-60q44-5 90-6.5t95-1.5q50 0 96 1.5t89 6.5q5 29 7 60t2 65q0 64-9 123-69 7-109.5 9.5T719 2250zm1162 0q-34 0-75-2.5t-110-9.5q-9-59-9-123 0-34 2.5-65t6.5-60q44-5 89.5-6.5t95.5-1.5q50 0 96 1.5t89 6.5q5 29 7 60t2 65q0 64-9 123-69 7-109.5 9.5t-75.5 2.5zM666 2028h106v-828h1056v828h106v-828h226q6 0 10.5-22t4.5-51q0-29-4.5-51t-10.5-22h-122v-82q-17-2-43.5-3t-63.5-1V702l-100 6v260q-37 0-63.5 1t-43.5 3v82h-379V620q80-1 181-3t207-7q106-5 201.5-12t166.5-17.5q71-10.5 101-24.5 31-14 60.5-60t51.5-113l-20 5q-202 50-441.5 81T1300 500q-313 0-552.5-31T306 388l-20-5q22 67 51.5 113t60.5 60q31 13 102 23.5t166.5 18q95.5 7.5 201 12t206.5 7q101 2.5 181 3.5v434H876v-82q-17-2-43.5-3t-63.5-1V708l-100-6v266q-37 0-63.5 1t-43.5 3v82H440q-6 0-10.5 22t-4.5 51q0 29 4.5 51t10.5 22h226v828zM970 954h195V719q-82-2-159-3.5T859 712v160q34 0 61 2t49 5q1 15 1 37.5V954zm465 0h195v-37.5q0-22.5 1-37.5 22-3 49-5t61-2V712q-70 2-146.5 3.5T1435 719v235z"/></svg>