<svg viewBox="0 0 2601 2335.392" xmlns="http://www.w3.org/2000/svg"><path d="M1588 2250l-41-280q-24-163-50-271t-64-175q-38-67-96.5-105.5t-146-63Q1103 1331 977 1306l-159-31v-150l159-31q126-25 213.5-49.5t146-63Q1395 943 1433 876t64-175q26-108 50-271l41-280h152l41 280q24 163 50 271t64 175q38 67 96.5 105.5t146 63Q2225 1069 2351 1094l159 31v150l-159 31q-126 25-213.5 49.5t-146 63Q1933 1457 1895 1524t-64 174.5q-26 107.5-50 271.5l-41 280h-152zm-1103 0l-37-167q-22-99-39-150.5t-49-76q-32-24.5-98-42.5l-172-48v-154l172-48q66-19 98-43t49-75.5q17-51.5 39-150.5l37-167h158l37 167q22 99 39 150.5t49 75.5q32 24 98 43l172 48v154l-172 48q-66 18-98 42.5t-49 76q-17 51.5-39 150.5l-37 167H485zm84-198q16-94 36-155t52.5-99.5q32.5-38.5 84.5-62t133-41.5v-10q-81-18-133-41.5t-84.5-62Q625 1542 605 1481t-36-155h-10q-16 94-36 155t-52.5 99.5q-32.5 38.5-84.5 62T253 1684v10q81 18 133 41.5t84.5 62Q503 1836 523 1897t36 155h10zm77-1014l-27-133q-15-78-31.5-119t-53-62.5Q498 702 421 685l-93-21V524l93-21q77-18 113.5-39t53-62.5Q604 360 619 283l27-133h150l27 133q16 77 32 118.5t53 62.5q37 21 113 39l93 21v140l-93 21q-76 17-113 38.5T855 786q-16 41-32 119l-27 133H646zm80-159q12-74 27.5-122t41-77.5Q820 650 861 632t105-33v-10q-64-15-105-33t-66.5-47.5Q769 479 753.5 431T726 309h-10q-12 74-27.5 122t-41 77.5Q622 538 581 556t-105 33v10q64 15 105 33t66.5 47.5q25.5 29.5 41 77.5T716 879h10zm943 1020q19-127 40.5-221.5T1760 1514q29-69 69-117.5t95.5-83q55.5-34.5 131-60T2230 1205v-10q-99-23-174.5-48.5t-131-60q-55.5-34.5-95.5-83T1760 886q-29-69-50.5-163.5T1669 501h-10q-19 127-40.5 221.5T1568 886q-29 69-69 117.5t-95.5 83q-55.5 34.5-131 60T1098 1195v10q99 23 174.5 48.5t131 60q55.5 34.5 95.5 83t69 117.5q29 69 50.5 163.5T1659 1899h10z"/></svg>