<svg viewBox="0 0 2601 2335.392" xmlns="http://www.w3.org/2000/svg"><path d="M1407 2250q-100 0-158-41t-58-93q0-34 21.5-81.5T1262 1921q28-66 49.5-154t21.5-203q0-71-9-141t-26-140q-64 19-129.5 29t-130.5 10q-188 0-355.5-78.5t-303-227Q244 868 152 659q167-98 312.5-144T759 469q160 0 309.5 57T1339 692q79-170 210.5-291.5t301.5-186q170-64.5 363-64.5 68 0 115 2t119 10q0 298-100.5 528.5t-285.5 374Q1877 1208 1625 1246q27 108 47.5 209.5t32 200Q1716 1754 1716 1852q0 211-77 304.5t-232 93.5zM1135 971q-106-76-232-123t-241-51q-71-3-71-49 0-22 15.5-38.5T656 693q90 0 190.5 24.5t194 67Q1134 827 1202 883q28 22 31.5 46.5T1222 972q-33 38-87-1zm273 1169q99 0 143.5-64t44.5-224q0-109-15-221.5t-41-232.5q-26-120-60-250 182-6 334-73t264.5-185.5q112.5-118.5 177-278T2327 262q-22-1-49.5-1.5t-63.5-.5q-199 0-365 75t-286 215q-120 140-184 336-133-151-288-229t-332-78q-116 0-228 30.5T306 699q84 165 196.5 279.5t248 174Q886 1212 1038 1212q83 0 174.5-12.5T1386 1153q33 106 50 208.5t17 202.5q0 129-20 221t-46 153.5q-26 61.5-46 99.5t-20 58q0 21 20.5 32.5t66.5 11.5zm154-1259q-19-11-25-32t12-51q46-76 120-154.5T1825 503q82-62 151-89 23-9 41.5-7.5T2048 429q24 42-37 74-96 50-193.5 138T1650 841q-40 65-88 40z"/></svg>