<svg viewBox="0 0 2601 2335.392" xmlns="http://www.w3.org/2000/svg"><path d="M315 1950V450h1970v1500H315zm97-110h136v-120H412v120zm277 0h135v-120H689v120zm271 0h135v-120H960v120zm-409-180V740h120v920H551zm681 180h135v-120h-135v120zm271 0h135v-120h-135v120zM411 680h136V560H411v120zm1363 1160h136v-120h-136v120zM411 1620h1778V780H411v840zm277-940h135V560H688v120zm1364 1160h136v-120h-136v120zM959 680h135V560H959v120zm272 0h135V560h-135v120zm698 980V740h120v920h-120zm-427-980h135V560h-135v120zm271 0h135V560h-135v120zm279 0h136V560h-136v120z"/></svg>