<svg viewBox="0 0 2601 2335.392" xmlns="http://www.w3.org/2000/svg"><path d="M426 2250q-72 0-124-51.5T250 2076V325q0-72 51.5-123.5T425 150h1750q72 0 123.5 51.5T2350 325v1751q0 71-52 122.5t-124 51.5H426zm304-257q-91 0-155.5-15t-64.5-36q0-14 29.5-25t79.5-18q50-7 111-7t111 7q50 7 79.5 18t29.5 25q0 21-64 36t-156 15zm-204-177q-48 0-103.5-1t-109.5-2v-106q65 6 114.5 9.5T536 1720q132 0 242.5-14t198.5-14q103 0 162 15.5t59 25.5q0 10-56.5 24T989 1784.5q-96 13.5-216 22.5t-247 9zm202-234q-124 0-228.5-5.5T308 1561l40-75q80 8 175.5 11t204.5 3h184q-34-28-57-45.5t-36-26.5q-23-17-47-35.5t-40-39.5q-19-26-23.5-47.5T704 1269v-11q-44 26-79 40.5t-65 24.5q-30 10-61 25-34 16-54.5 29t-41 24q-20.5 11-55.5 24l-40-67q55-17 86-40.5t71-41.5q37-17 91.5-36.5T638 1205q27-15 50.5-25t37.5-10q16 0 59 18t100 41q57 23 116 40 32 9 93.5 18t101.5 19l73 18 30 248q-57 0-117.5 1.5T1056 1577q-80 3-162.5 4t-165.5 1zm646 138q-14 0-21-3-1-4-1.5-8.5t-.5-8.5q0-22 9-40.5t22-18.5q12 0 12 16 0 5-1.5 11.5t-4.5 14.5q13-6 26-6 15 0 15 11 0 13-17 22.5t-38 9.5zm270 479q-80-19-127-55t-47-79q0-44 45-72t114-28l35 149h169l30-122q58 4 136.5 11.5T2157 2019q79 8 136 15l-48 140-601 25zm153-212q-14 0-23-20.5t-9-39.5q0-11 3-20 26 0 51.5 8.5t25.5 25.5q0 11-17 11-8 0-25-6 6 16 6 25 0 16-12 16zm-150-182q-21 0-21-13 0-6 7-12.5t21-13.5q-14-6-21-13t-7-12q0-13 21-13 34 0 57 38-24 39-57 39zm-212-282q-21 0-38.5-9.5T1379 1491q0-11 15-11 5 0 12 1t14 5q-3-8-4-14.5t-1-11.5q0-15 11-15 14 0 22.5 18.5t8.5 39.5v9q0 5-1 9-5 1-10.5 1.5t-10.5.5zM704 872q-88 0-149.5-61.5T493 661q0-87 61.5-148.5T704 451q87 0 148.5 61.5T914 661q0 88-61.5 149.5T704 872zm798 680l-27-180q34 1 64.5 6t57.5 12v162h-95zM426 2150h1748q31 0 53.5-22t22.5-52V325q0-30-22.5-52.5T2175 250H425q-30 0-52.5 22.5T350 325v1751q0 30 22.5 52t53.5 22zm979-839q-21 0-21-13 0-6 7.5-12.5t21.5-12.5q-14-7-21.5-13.5t-7.5-12.5q0-13 21-13 33 0 57 39-24 38-57 38zm386 240q-34 0-58-39 26-38 58-38 21 0 21 12 0 7-7.5 13.5T1783 1513q14 6 21.5 13t7.5 12q0 13-21 13zm-55 631q-85 0-125-62t-40-215q-100-10-182-84t-130.5-196.5Q1210 1502 1210 1347q0-139 47.5-215t123.5-76q64 0 95.5 55.5T1508 1263q0 16-1.5 56t-3 79q-1.5 39-1.5 53 0 66 17.5 98t52.5 41v-97q0-55-9.5-141.5T1543 1178q-10-87-10-144 0-156 53-241.5t150-85.5q92 0 143 76t51 214q0 27-4.5 87t-11 130.5q-6.5 70.5-11 131t-4.5 89.5q14 10 28 10 16 0 26.5-16t10.5-43q0-22-2-64l-4-84q-2-42-2-62 0-84 32-133.5t95-49.5q74 0 105 68.5t31 209.5q0 134-34 239.5t-95 166.5q-61 61-142 61-25 0-42-6v179q0 142-42 206.5t-128 64.5zm0-60q55 0 77.5-45.5T1836 1911v-281q61 38 112 38 61 0 108.5-50.5t75-140Q2159 1388 2159 1271q0-118-17.5-163t-58.5-45q-34 0-50.5 25.5T2016 1176q0 16 1 43.5t3 58.5q2 31 3 60t1 48q0 51-27 85t-70 34q-22 0-45-11.5t-43-31.5q0-26 2-73.5t5-104.5q3-57 6.5-113.5t5.5-103q2-46.5 2-70.5 0-103-34-161.5t-90-58.5q-60 0-96.5 69t-36.5 188q0 39 4.5 99.5t10 128q5.5 67.5 10 129t4.5 102.5v167q-7 1-14.5 1.5t-15.5.5q-79 0-119.5-54.5T1442 1451q0-15 1.5-55t3-79.5q1.5-39.5 1.5-53.5 0-73-16.5-105t-50.5-32q-45 0-68 54t-23 167q0 146 41 256.5t113.5 172.5q72.5 62 166.5 62h30v59q0 87 9 136t30 69q21 20 56 20zm-362-1035q-38-23-38-57 0-22 13-22 5 0 12 7.5t13 21.5q7-14 13.5-21.5t12.5-7.5q12 0 12 22 0 34-38 57zm258 239q-15 0-22-3-1-4-1-8.5v-8.5q0-22 9-40.5t22-18.5q11 0 11 16 0 12-5 26 8-4 14.5-5t11.5-1q15 0 15 11 0 13-18 22.5t-37 9.5zm393 327q-21 0-38.5-9.5T1969 1621q0-11 15-11 5 0 12 1t14 5q-3-8-4-14.5t-1-11.5q0-15 11-15 14 0 22.5 18.5t8.5 39.5v9q0 5-1 9-5 1-10.5 1.5t-10.5.5zm231 168q-64-3-108-19.5t-44-38.5q0-15 30.5-28t67-21q36.5-8 54.5-8v115zm-391-360l4-44q27 0 55 1t56 7l-7 36h-108zm276 106l28-100q30 7 64.5 13.5t64.5 6.5v80h-157zm-28-174q-14 0-21-3-1-4-1-8.5v-8.5q0-22 8.5-40.5t22.5-18.5q11 0 11 16 0 12-5 26 8-4 14.5-5t11.5-1q15 0 15 11 0 13-18 22.5t-38 9.5zm-337-365q-5 0-10.5-.5t-10.5-1.5q-3-9-3-20 0-20 9.5-38t22.5-18q12 0 12 16 0 10-6 25 8-4 14.5-4.5t11.5-.5q15 0 15 10 0 14-18 23t-37 9zm-84-288q-42-25-42-56 0-23 13-23 7 0 14.5 7.5T1692 692q7-16 14.5-23.5t13.5-7.5q14 0 14 23 0 31-42 56zm337 300q-38-22-38-57 0-21 13-21 6 0 12.5 7t12.5 21q7-14 13.5-21t12.5-7q13 0 13 21 0 35-39 57z"/></svg>