<svg viewBox="0 0 2601 2335.392" xmlns="http://www.w3.org/2000/svg"><path d="M558 1377q-32 0-56-16.5t-24-48.5q0-17 8.5-31.5T508 1253l731-725q38-37 66.5-53t62.5-16q34 0 63 16t66 53l731 725q13 13 21.5 27.5t8.5 31.5q0 32-24 48.5t-56 16.5h-186l-624-618-624 618H558zm203 643q12 0 20.5-8.5t8.5-20.5q0-12-8.5-20.5T761 1962q-12 0-20.5 8.5T732 1991q0 12 8.5 20.5t20.5 8.5zm-324-139q-42 0-69.5-26.5T340 1787q0-92 149-144 26-55 73-79.5t141-24.5v342H437zm8-90h179v-162q-22 0-46 21.5t-39 59.5q-46 15-77.5 36t-31.5 36q0 9 15 9zm409 141q10 0 17.5-7.5t7.5-17.5q0-11-7.5-18.5T853 1881q-10 0-18 7.5t-8 18.5q0 10 8 17.5t19 7.5zm99 77q11 0 19.5-8.5t8.5-19.5q0-12-8.5-20.5T953 1952q-11 0-19.5 8.5T925 1981q0 11 8.5 19.5t19.5 8.5zm79-53q9 0 15.5-6.5t6.5-16.5q0-10-6.5-16.5t-15.5-6.5q-23 0-23 23t23 23zm162 194h348v-50h-348v50zm-308-437q-12 0-21-9.5t-9-20.5v-80h110v110h-80zm320 307h324v-50h-324v50zm-190-307v-110h110v80q0 11-9.5 20.5t-20.5 9.5h-80zm-160-160v-80q0-12 9-21t21-9h80v110H856zm160 0v-110h80q11 0 20.5 9t9.5 21v80h-110zm66 697v-150H791q-73 0-109.5-23t-36.5-79q0-28 8-66t21-58v-594h100v549h10q32 0 52 9.5t46 9.5q26 0 46.5-9t52.5-9q28 0 53.5 10t47.5 30h572q22-20 47.5-30t53.5-10q32 0 53 9t46 9q26 0 46.5-9.5t51.5-9.5h10v-549h100v594q13 20 21 58t8 66q0 56-36 79t-110 23h-291v150h-572zm622-225q11 0 19.5-8.5t8.5-20.5q0-12-8.5-20.5t-19.5-8.5q-12 0-20.5 8.5t-8.5 20.5q0 12 8.5 20.5t20.5 8.5zm-496-111v-419q0-62 49-105t111-43q62 0 111 43t49 105v419h-320zm-562-303q-88 0-163-56.5t-131.5-157q-56.5-100.5-88-233T232 880q0-152 31.5-284.5t88-232.5q56.5-100 132-156.5T646 150q109 0 197.5 87T988 476q56 152 68 347l-100 6q-10-167-54.5-297.5T790 325.5Q723 250 646 250q-83 0-155 85.5T375.5 564Q332 707 332 880t43.5 316.5Q419 1340 491 1425.5t155 85.5q19 0 34-4l26 96q-30 8-60 8zm825 71q11 0 18.5-8t7.5-18q0-11-7.5-18t-18.5-7q-25 0-25 25 0 10 7.5 18t17.5 8zm343 258q12 0 20.5-8.5t8.5-20.5q0-12-8.5-20.5t-20.5-8.5q-12 0-20.5 8.5t-8.5 20.5q0 12 8.5 20.5t20.5 8.5zm150 59q12 0 21-9t9-21q0-13-9-22t-21-9q-13 0-22 9t-9 22q0 12 9 21t22 9zm-324-286q-11 0-20.5-9.5t-9.5-20.5v-80h110v110h-80zm130 0v-110h110v80q0 11-9 20.5t-21 9.5h-80zm-160-160v-80q0-12 9.5-21t20.5-9h80v110h-110zm160 0v-110h80q12 0 21 9t9 21v80h-110zM622 1277h100l646-638 646 638h100q5 0 7.5-4t-1.5-8l-693-687q-25-25-36.5-32t-22.5-7q-10 0-21.5 7t-37.5 32l-693 687q-4 4-1.5 8t7.5 4zm1394 604v-90h234q12 0 20-7.5t8-17.5q0-14-14.5-28t-47.5-21q-3-40-33-72.5t-69-32.5q-9-12-24-19.5t-29-7.5q-5 0-13 2l-63-86q37-25 67-25 27 0 48 16t32 40q58 4 99 39.5t50 90.5q44 13 65.5 43.5t21.5 65.5q0 42-29 76t-81 34h-242z"/></svg>