<svg viewBox="0 0 2601 2335.392" xmlns="http://www.w3.org/2000/svg"><path d="M370 1515q-142-41-221-153t-79-248q0-97 33-175t91-124q58-46 131-46 49 0 71 35t22 96q0 25-4.5 68.5T409 1036q0 55 35.5 80t104.5 25q27 0 42-.5t29-1.5l-35 21q-66-83-102-200.5T434 671q-5-72-12.5-116.5T403 491q-25-47-67.5-77T259 354.5Q225 325 225 281q0-43 34.5-72t86-44Q397 150 449 150q98 0 174 57.5t122.5 151Q792 452 800 560l-13-2q38-83 113-130t170-47q87 0 161 38 132-69 255-98t247-29q87 0 176.5 11.5T2094 335l-36 96q-87-17-170-27t-163-10q-127 0-249 31.5T1229 536q-33-26-73.5-40.5T1070 481q-72 0-123.5 35t-79 93.5Q840 668 840 740q0 52 19.5 93t52.5 76q-31 10-61 10-71 0-94.5-61.5T722 667q-6-69-26-165-22-107-91-179.5T459 250q-31 0-51.5 12T387 288q0 18 30 34t68.5 43q38.5 27 65.5 79 18 34 28 91.5T594 664q7 90 19 165t50 164q28 64 74.5 115.5T856 1192q-22 8-78.5 20T656 1232.5q-65 8.5-116 8.5-100 0-164-46t-64-139q0-36 9.5-83.5T331 908q0-15-6.5-22t-16.5-7q-21 0-42.5 31T229 988q-15 47-15 96 0 85 46 150t124.5 101.5Q463 1372 558 1372l-188 143zm143 408q23 0 39.5-13t16.5-31q0-17-16.5-30t-39.5-13q-22 0-38.5 13t-16.5 30q0 18 16.5 31t38.5 13zm-199-504q14-11 13-31.5t-16-37.5q-13-15-33-19t-32 6q-13 10-13.5 30.5T247 1405q15 16 34.5 20t32.5-6zm452 438q20-11 27.5-30.5T792 1791q-8-15-29-17t-41 9q-19 10-26 29t0 34q8 16 29.5 19t40.5-8zm-595-604q17-3 27-21t5-40q-4-20-19-33.5t-31-10.5q-17 3-27 20.5t-6 39.5q5 21 20 34.5t31 10.5zm854 779q16-6 22.5-26t-1.5-40q-8-23-25.5-34t-34.5-5q-17 6-23 26t1 41q8 22 26 33.5t35 4.5zm229 172q23 0 39.5-13t16.5-31q0-17-16.5-30t-39.5-13q-22 0-38.5 13t-16.5 30q0 18 16.5 31t38.5 13zm7 46q-95 0-177-55t-135.5-152q-53.5-97-63.5-222-76 73-162 111t-172 38q-89 0-159-37.5t-110.5-103Q241 1764 241 1681q0-92 51.5-161.5t126-108.5q74.5-39 142.5-39 67 0 107.5 36t40.5 95q0 55-35.5 104t-95.5 75l-52-69q30-14 47.5-37t17.5-43q0-17-12-24t-33-7q-66 0-115.5 41T381 1651q0 65 49 108t121 43q84 0 192-69.5t258-217.5q0 278 70.5 421.5T1261 2080q74 0 124-50t50-129q0-50-23-81t-54-31q-28 0-45 23.5t-17 52.5h-99q0-86 48.5-141t124.5-55q58 0 106.5 31.5t78.5 84.5q30 53 30 116 0 95-43.5 174.5t-117 127Q1351 2250 1261 2250zM149 1053q17 3 32-10.5t19-35.5q4-21-5.5-38T169 948q-17-4-33 10t-19 35q-3 22 6.5 39.5T149 1053zm1299 1028q14 8 31.5 1.5t27.5-24.5q11-18 8.5-38t-16.5-27q-13-8-32-.5t-28 25.5q-9 18-6.5 36.5t15.5 26.5zM560 953q17-3 26-21t6-40q-3-20-18-33.5T542 848q-17 3-27 20.5t-6 39.5q5 21 20 34.5t31 10.5zm1186 1001q22 8 40.5 1.5t24.5-22.5q7-18-4-34.5t-33-25.5q-20-8-39.5-2.5T1708 1893q-7 18 5 35.5t33 25.5zM512 714q17 0 29.5-16t12.5-38q0-22-12.5-37.5T512 607q-17 0-29.5 15.5T470 660q0 22 12.5 38t29.5 16zm-41-214q19 0 27-13t8-27q0-26-16.5-43.5T453 399q-16 0-25.5 12t-9.5 29q0 25 17 42.5t36 17.5zm1575 1490q23 0 39.5-13t16.5-31q0-17-16.5-30t-39.5-13q-22 0-38.5 13t-16.5 30q0 18 16.5 31t38.5 13zm-455-587q-29 0-48.5-21t-19.5-51q0-38 26-68.5t63-30.5q31 0 50 21t19 53q0 37-26 67t-64 30zm-233-386q-36 0-62-31t-26-74q0-44 26-74.5t62-30.5q37 0 62 30.5t25 74.5q0 44-25 74.5t-62 30.5zm-279 16q-26-63-26-128 0-87 42-158.5t113-114q71-42.5 156-42.5 27 0 56 5t57 16l-36 94q-20-8-38.5-11.5T1364 690q-58 0-106 29t-76.5 78q-28.5 49-28.5 108 0 43 18 90l-92 38zm1261 862q20-11 28.5-31t-1.5-36q-9-15-29.5-17t-39.5 9q-19 12-27.5 30.5t1.5 35.5q8 14 28 17.5t40-8.5zm-167-473q14 9 32.5 1.5t29.5-26.5q11-19 8-39t-18-28q-14-8-32.5-1t-29.5 26q-11 19-8 38.5t18 28.5zm-172 612q-100 0-225.5-27t-271.5-82v-173q152 57 276 84.5t221 27.5q116 0 206.5-34.5t142-94.5q51.5-60 51.5-134 0-9-5-16t-14-7q-8 0-20 8.5t-32 31.5q-45 53-110.5 79.5T2080 1724q-97 0-176-47.5T1767 1535q200 0 310-125t110-342V888q0-104 .5-163t4.5-112q6-82 45-162.5t94-126.5q12-11 18-21t6-17q0-9-8-14t-23-5q-72 0-131.5 54T2090 479q-26 63-41 144t-21.5 207.5Q2021 957 2021 1157q-4 131-79.5 197t-212.5 66q19-38 27-70.5t8-59.5q0-45-19.5-75t-50.5-47l40-70q43 25 81.5 36t105.5 14q0-205 7.5-336.5T1953 594q17-86 45-153 55-133 139-203.5t187-70.5q36 0 83.5 14.5t83 41Q2526 249 2526 286q0 60-55 111-42 39-71.5 100.5T2362 625q-5 45-6 95.5t-1 142.5q0 43 1.5 98t1.5 126q0 192-86.5 327.5T2019 1617q14 4 29.5 5.5t31.5 1.5q47 0 90.5-15.5t93.5-65.5q41-41 73.5-57.5t63.5-16.5q51 0 80 39.5t29 113.5q0 117-64.5 210t-179 147.5Q2152 2034 2001 2034zm267-964q17 0 29.5-16t12.5-38q0-22-12.5-37.5T2268 963q-17 0-29.5 15.5T2226 1016q0 22 12.5 38t29.5 16zm-6-345q17 2 31.5-11t18.5-34q5-22-5-40t-28-20q-16-2-31 11t-18 33q-3 22 6 40.5t26 20.5zm65 418l5-137q51-50 74.5-104.5T2430 780q0-209-183-312l56-82q109 64 168 165t59 229q0 114-51 204t-152 159z"/></svg>