<svg viewBox="0 0 2601 2335.392" xmlns="http://www.w3.org/2000/svg"><path d="M1009 1793q-226 0-394-95t-248-273q-40-89-54-178.5T282 1080l-66-290q-11-48-16-83.5t-5-68.5q0-143 68.5-253T449 212.5Q566 150 710 150q102 0 200.5 43T1089 314q80 78 125 182l47 109q42 97 96 144.5t100 47.5q57 0 117.5-75.5T1719 487q295 0 497 88.5T2522 835l-631 439q40 22 63 48.5t23 64.5q0 46-28.5 75.5T1874 1509q-26 49-63 74t-92 32l-30 33q-54 59-116.5 88.5T1438 1766q-52 0-109-17-75 22-153 33t-167 11zm-159 316q-54 0-76-12.5t-22-38.5q0-53 77-62 79-10 109.5-31t30.5-64q0-23-7.5-56t-21.5-77l116-17q14 31 24 84t10 90q0 87-63.5 135.5T850 2109zm237 141q-64 0-64-39 0-31 32-57.5t73.5-55.5q41.5-29 73.5-65.5t32-87.5q0-18-4-54t-10.5-74.5q-6.5-38.5-14.5-66.5l122-44 35 300q3 28-25 69t-73 81q-45 40-93 67t-84 27zM270 931q-44 0-88.5-11.5t-74-29Q78 873 78 856q0-20 26-54.5t64-70.5q38-36 74.5-61t57.5-25q30 0 63 37t56.5 90Q443 825 443 874q0 25-49.5 41T270 931zm422-154q-37 0-63.5-30T602 674q0-42 26.5-72t63.5-30q38 0 64 30t26 72q0 43-26 73t-64 30zm317 906q50 0 96-4t89-11q-102-65-198-175.5T818 1228l86-52q87 147 181.5 254.5T1271 1597q91 59 167 59 55 0 101.5-19.5t96.5-77.5l36-41q59-2 83.5-19t47.5-73q33-8 48.5-17.5t15.5-23.5q0-15-16.5-33t-51-40q-34.5-22-88.5-49l652-453q-39-54-131.5-101.5t-213-78Q1898 600 1776 597q-91 171-163 240.5T1457 907q-84 0-160-60.5T1168 658l-45-110q-35-87-101.5-152t-148-100.5Q792 260 710 260q-117 0-206 47T365 438.5Q315 523 315 638q0 28 4.5 56.5T334 766l66 290q16 67 25.5 159t43.5 170q66 150 204.5 224t335.5 74z"/></svg>