<svg viewBox="0 0 2601 2335.392" xmlns="http://www.w3.org/2000/svg"><path d="M1300 1366q-337-264-498.5-470T640 506q0-103 47-183t126.5-126.5Q893 150 992 150q94 0 175 44.5T1300 315q52-76 133-120.5t175-44.5q99 0 179 46.5T1913.5 323q46.5 80 46.5 183 0 184-161.5 390T1300 1366zm-605 605q-95 0-171-43t-108-116l82-36q21 47 74.5 76t122.5 29q119 0 171-76l74 50q-37 55-102 85.5T695 1971zm-201-263q-34 0-54.5-29t-20.5-65q0-41 22.5-71.5T498 1512q34 0 54.5 29t20.5 65q0 41-22.5 71.5T494 1708zm177 542q-298 0-454.5-85.5T60 1916q0-231 78-408.5t216-278Q492 1129 672 1129q179 0 317 100.5t216 277.5q78 177 78 409 0 163-156.5 248.5T671 2250zm0-100q249 0 375.5-59t126.5-175q0-200-64.5-355t-178-243.5Q817 1229 671 1229q-145 0-258 89t-178 244q-65 155-65 354 0 116 126 175t375 59zm233-412q-34 0-54.5-29t-20.5-65q0-41 22.5-71.5T908 1542q34 0 54.5 29t20.5 65q0 41-22.5 71.5T904 1738zm797 0q-34 0-56.5-30.5T1622 1636q0-36 20.5-65t54.5-29q34 0 56.5 30.5t22.5 71.5q0 36-20.5 65t-54.5 29zm206 233q-78 0-143-30.5t-102-85.5l74-50q52 76 171 76 69 0 122.5-29t74.5-76l82 36q-31 73-107.5 116t-171.5 43zm23 279q-299 0-456-85.5T1317 1916q0-232 78-409t216-277.5q138-100.5 318-100.5 179 0 317 100.5t216 278q78 177.5 78 408.5 0 163-156 248.5t-454 85.5zm-1-100q249 0 375-59t126-175q0-199-65-354t-178-244q-113-89-258-89-146 0-259.5 88.5t-178 243.5q-64.5 155-64.5 355 0 116 126.5 175t375.5 59zm182-442q-34 0-56.5-30.5T2032 1606q0-36 20.5-65t54.5-29q34 0 56.5 30.5t22.5 71.5q0 36-20.5 65t-54.5 29zm-811-470q285-230 417.5-407.5T1850 506q0-113-67.5-184.5T1608 250q-82 0-169 66.5T1300 481q-52-98-138.5-164.5T992 250q-106 0-174 71.5T750 506q0 147 132.5 324.5T1300 1238z"/></svg>