<svg viewBox="0 0 2601 2335.392" xmlns="http://www.w3.org/2000/svg"><path d="M419 2250q-114 0-185-60t-87-171q-8-59-14.5-159.5T123 1638q-3-121-3-239 0-176 7-342.5T146 755q11-125 81-194.5T415 491h1770q118 0 188 69.5t81 194.5q12 135 19 301.5t7 342.5q0 118-3 239t-9 221.5q-6 100.5-15 159.5-16 111-87 171t-185 60H419zm716-625h330v-150h-330v150zm-100 100v-600h530v600h-530zm-616 425h1762q152 0 173-145 9-62 15-165t8.5-220.5q2.5-117.5 2.5-220.5 0-78-1.5-154t-4.5-148q-47 96-148 169.5T1948 1385q-177 45-452 57v-99q253-10 419.5-51t262.5-113.5q96-72.5 136-176t40-239.5q0-80-45.5-126T2185 591H415q-78 0-123.5 43T246 763q0 136 40 239.5t136 176q96 72.5 262.5 113.5t418.5 51v99q-274-12-451-57t-278-118.5Q273 1193 226 1097q-3 72-4.5 148t-1.5 154q0 103 3 220.5t8.5 220.5q5.5 103 14.5 165 21 145 173 145zm716-775h330v-150h-330v150zM960 518V288h100v230H960zm42-125q-27 0-45-20t-18-51q0-74 102.5-123t259.5-49q155 0 257.5 49T1661 322q0 31-18 51t-45 20q-16 0-38-11-63-32-119.5-45T1301 324q-85 0-141.5 13T1040 382q-22 11-38 11zm538 125V288h100v230h-100z"/></svg>