<svg viewBox="0 0 2601 2335.392" xmlns="http://www.w3.org/2000/svg"><path d="M2008 1734q-121 0-283-54t-342-152q-180-98-355-229-209-157-368.5-324.5T410 652q-90-155-90-273 0-82 41-135 72-94 236-94 113 0 258 48t305 132q160 84 320 194t303.5 236Q1927 886 2039 1016.5t176.5 256Q2280 1398 2280 1506q0 114-76.5 171t-195.5 57zm-833 516q-428 0-668-141 0-91 65-153t210-112v108q-65 25-104 52t-50 53q101 47 236.5 70t310.5 23q134 0 237.5-9.5t181.5-29q78-19.5 132-49.5-8-29-58-61t-125-57v-112q135 43 218 114t83 158q-95 77-256 111.5t-413 34.5zm41-179l-463-113 37-451q6-77 52.5-123t116.5-46q71 0 118.5 47.5T1137 1516l79 555zm-122-123l-55-416q-7-52-28-73t-52-21q-29 0-47.5 19t-21.5 58l-31 369 235 64zm-136-347q-17 0-28.5-16t-11.5-38q0-23 11.5-39t28.5-16q17 0 28.5 16t11.5 39q0 22-11.5 38t-28.5 16zm258 470l-50-281 115-12 23-130 246 34 51 277-385 112zm-377-574q-70-59-143.5-157T555 1120.5Q488 999 435 868t-84-257q-31-126-31-232l95 6q0 105 37 241t99.5 278q62.5 142 142 267.5T858 1380l-19 117zm991 286q-117 0-244-18t-250-50q-123-32-229-72l-4-106q107 46 230.5 79.5t249.5 51q126 17.5 238 17.5 96 0 177.5-19t127.5-53l51 81q-59 43-150.5 66t-196.5 23zm178-148q83 0 126.5-28.5t43.5-97.5q0-90-59-201t-162-231q-103-120-236-238.5T1438.5 614Q1289 508 1138 426T847 297q-140-47-253-47-60 0-97 13.5T440 303q-21 27-21 76 0 74 49 173t138.5 211.5q89.5 112.5 212 229T1087 1218q167 124 337.5 218t322 146.5Q1898 1635 2008 1635zM687 940l-40-92 1082-494 40 92L687 940zm1027 669l-100-10 150-1163 100 10-150 1163zm-329-615l-80-60 464-564 75 67-459 557zm412-531l-59-51q-16-14-18-35t12-38l117-136q14-17 34.5-18.5T1920 197l59 49q17 13 18.5 34t-12.5 38l-116 138q-14 17-35 19t-37-12z"/></svg>