<svg viewBox="0 0 2601 2335.392" xmlns="http://www.w3.org/2000/svg"><path d="M1300 2250l-970-534V640l970-540 970 540v1076l-970 534zm-598-522l-182-100v-47l182 100v47zm-126-152l-40-22v-122l40 20v124zm370 288l-182-100v-47l182 100v47zm-259-227l-40-22v-122l40 20v124zm-84-160l-94-51 48-42 46 93zm275 329l-40-20v-126h40v146zm-164-267l-94-52 48-42 46 94zm200 155q-57 0-102.5-53.5T766 1494l215 113q0 45-19.5 66t-47.5 21zm326 387v-867L450 777v869l790 435zm120 0l790-435V777l-227 126-61-104 224-124-786-437-786 437 785 435 222-122 67 101-228 126v866zm159-546v-492L668 541l98-57 853 501v304l33-46 90 27 77-115 40 13V862L990 353l99-58 870 509v500l-98-31-74 114-108-32-160 180z"/></svg>