<svg viewBox="0 0 2601 2335.392" xmlns="http://www.w3.org/2000/svg"><path d="M319 2150q-70 0-119.5-50.5T150 1979V563q0-71 49.5-121T319 392h1962q70 0 119.5 50t49.5 121v1416q0 70-49.5 120.5T2281 2150H319zm1164-54q-130 0-243.5-49T1040 1912q-86-86-135-199.5T856 1469q0-130 48.5-244t135-200q86.5-86 200-135t243.5-49q119 0 230.5 49t201.5 135q90 86 142.5 200t52.5 244q0 130-48.5 243.5t-135 199.5q-86.5 86-200 135t-243.5 49zm0-156q131 0 238-63.5t171-170.5q64-107 64-237t-64-237q-64-107-171-171t-238-64q-130 0-237.5 64T1074 1232q-64 107-64 237t64 237q64 107 171.5 170.5T1483 1940zm0-120q-96 0-175-47.5T1181.5 1645q-47.5-80-47.5-176 0-97 47.5-176.5t126.5-127q79-47.5 175-47.5 99 0 178 44.5t125.5 123.5q46.5 79 46.5 183 0 96-47 176t-126 127.5q-79 47.5-177 47.5zM319 2050h1962q29 0 49-21t20-50v-56h-486v-100h486V998h-693V898h693V563q0-29-20-50t-49-21H319q-28 0-48.5 21T250 563v335h1007v100H250v825h834v100H250v56q0 29 20.5 50t48.5 21zm66-1600V340q0-90 90-90h297q90 0 90 90v110H385zm1008 338q-25 0-42.5-17.5T1333 728v-99q0-25 17.5-42.5T1393 569h180q25 0 42.5 17.5T1633 629v99q0 25-17.5 42.5T1573 788h-180zm534 30q-26 0-45-18.5t-19-44.5V635q0-26 19-44.5t45-18.5h222q26 0 45 18.5t19 44.5v120q0 26-19 44.5t-45 18.5h-222z"/></svg>