<svg viewBox="0 0 2601 2335.392" xmlns="http://www.w3.org/2000/svg"><path d="M241 2250v-440l761-756q-32-101-32-210 0-144 54-269.5t149.5-221q95.5-95.5 221-149.5t269.5-54q144 0 270 54t221.5 149q95.5 95 149.5 221t54 270q0 144-54 269.5t-149.5 221q-95.5 95.5-221 149.5t-269.5 54q-110 0-212-33l-166 166h-158l-60 208-213 13-14 217-139 141H241zm120-120h292l73-73 18-279 233-13 62-214h198l186-186q116 53 242 53 119 0 223-44.5t183-123.5q79-79 123.5-183t44.5-223q0-119-44.5-223T2071 438q-79-79-183-123.5T1664 270q-119 0-223 44.5T1258 438q-79 79-123.5 183T1090 844q0 129 52 240l-781 776v158l881-875 56 56-937 931zM1765 976q-64 0-117-31.5t-84.5-84Q1532 808 1532 744t31.5-117q31.5-53 84.5-84.5t117-31.5q64 0 117 31.5t84.5 84.5q31.5 53 31.5 117t-31.5 116.5q-31.5 52.5-84 84T1765 976zm0-120q47 0 80-33t33-79q0-46-33.5-79.5T1765 631q-46 0-79.5 33.5T1652 744q0 46 33.5 79t79.5 33z"/></svg>