<svg viewBox="0 0 2601 2335.392" xmlns="http://www.w3.org/2000/svg"><path d="M1300 2250q-207-69-370-219t-276.5-372Q540 1437 481 1151.5T422 527v-88q323-21 546.5-97.5T1300 150q108 115 332 191.5t546 97.5v88q0 339-59 624.5T1946.5 1659Q1833 1881 1670 2031t-370 219zm0-127q176-68 315.5-207t237.5-340.5q98-201.5 150.5-459.5t54.5-565q-235-21-432-84t-326-157q-129 94-325.5 157T542 551q2 307 54.5 565T747 1575.5Q845 1777 984.5 1916t315.5 207zm0-152q-159-63-278-191t-197.5-304q-78.5-176-118-385.5T667 655q206-21 360.5-68T1300 447q119 93 273 140t360 68q0 226-39.5 435.5t-118 385.5q-78.5 176-197.5 304t-278 191zm0-108V572q-103 66-231.5 106.5T769 744q9 276 76 501t183 383q116 158 272 235z"/></svg>