<svg viewBox="0 0 2601 2335.392" xmlns="http://www.w3.org/2000/svg"><path d="M1177 2250q-75 0-154-24t-145.5-67q-66.5-43-108-100T728 1936q0-77 45.5-168T892 1614q-37 4-69 6.5t-61 2.5q-91 0-155.5-32.5t-129.5-115Q412 1393 319 1244q-72-116-115.5-199.5T140 904q-20-57-20-93 0-56 44-73.5T282 720q101 0 240.5 29.5T815 836q153 57 300 139.5t263 189.5l-53 54q-103-94-241-169.5t-282-129q-144-53.5-269.5-82T327 810q-44 0-69.5 10T232 859q0 24 19 66.5t57.5 108Q347 1099 404 1192q59 96 105 160.5t91.5 103Q646 1494 702 1511t135 17q48 0 107-5.5t132-14.5q-94 112-148.5 192t-77 135.5Q828 1891 828 1930q0 66 54 115.5t133.5 77Q1095 2150 1171 2150q82 0 128.5-24t75.5-94.5q29-70.5 58-209.5l48 89q-13 161-82.5 250t-221.5 89zm-293-288q-14 0-24.5-10.5T849 1927q0-14 10.5-24.5T884 1892q14 0 24.5 10.5T919 1927q0 14-10.5 24.5T884 1962zm173 122q-14 0-24.5-10.5T1022 2049q0-14 10.5-24.5t24.5-10.5q14 0 24.5 10.5t10.5 24.5q0 14-10.5 24.5T1057 2084zm-122-242q-14 0-24.5-10.5T900 1807q0-14 10.5-24.5T935 1772q14 0 24.5 10.5T970 1807q0 14-10.5 24.5T935 1842zm82 137q-22 0-40-15.5t-18-40.5q0-40 44-89.5t115-80.5q0 103-30 164.5t-71 61.5zm187 116q-40 0-68-25t-28-68q0-46 34-93.5t96-68.5q31 31 46 68.5t15 72.5q0 46-25 80t-70 34zM380 1038q-14 0-24.5-10.5T345 1003q0-14 10.5-24.5T380 968q14 0 24.5 10.5T415 1003q0 14-10.5 24.5T380 1038zm-42-90q-21 0-35.5-14.5T288 898q0-21 14.5-35.5T338 848q21 0 35.5 14.5T388 898q0 21-14.5 35.5T338 948zm311 367q-61 10-97.5-6.5T515 1242q0-48 47-69t98-21q51 0 109.5 26t155.5 88l-276 49zm-105-182q-49 9-82-4.5t-33-58.5q0-33 22.5-49.5T508 1004q44 0 95 26.5t83 76.5l-142 26zm501 607q-16 0-27.5-11t-11.5-29q0-42 60-105.5t155-110.5q-51 122-95.5 189t-80.5 67zm301 217q-21 0-32-37t-11-84q0-41 8-80t25-61q23 35 34 84t11 91q0 28-7.5 57.5T1346 1957zM473 945q-16 0-28-12t-12-28q0-17 12-28.5t28-11.5q17 0 28.5 11.5T513 905q0 16-11.5 28T473 945zm403 532q-94 12-149-2t-55-51q0-39 40-64t95.5-36.5Q863 1312 911 1312q84 0 178.5 30t194.5 82l-408 53zm324 342q-27 0-40.5-18t-13.5-46q0-56 45-138.5t120-155.5q2 19 3 38.5t1 37.5q0 121-33.5 201.5T1200 1819zM592 978q-14 0-24.5-10.5T557 943q0-14 10.5-24.5T592 908q14 0 24.5 10.5T627 943q0 14-10.5 24.5T592 978zm973 1165q-25 0-59-67.5t-67-183q-33-115.5-58-260.5-15-89-24-169.5t-13-147.5l145-25q20 64 38.5 143t34.5 166q20 111 30 210t10 173q0 72-9 116.5t-28 44.5zm-295-797l-358-164q-104-48-175.5-106T665 982q0-16 13-22.5t32-6.5q49 0 117 25.5t141.5 68q73.5 42.5 139 94.5t110 105q44.5 53 52.5 100zm434 549q-20 0-39-30t-31-75.5q-12-45.5-12-92.5 0-14 1-27t4-25q26 17 48.5 55t36 80.5q13.5 42.5 13.5 73.5 0 41-21 41zm150 87q-45 0-75.5-44t-30.5-102q0-47 20-88 80 0 132 45t52 97q0 39-31.5 65.5T1854 1982zm-74-265q-53 0-114-84.5t-95-216.5q73 32 132 77.5t94 91q35 45.5 35 80.5 0 25-16.5 38.5T1780 1717zm234 195q-14 0-24.5-10.5T1979 1877q0-14 10.5-24.5t24.5-10.5q14 0 24.5 10.5t10.5 24.5q0 14-10.5 24.5T2014 1912zm-605-523q-49 0-79-35.5t-44-89q-14-53.5-14-106.5 0-138 118-138 48 0 78 35.5t44 88.5q14 53 14 106 0 65-29 102t-88 37zm598 415q-37 0-79-47.5t-76-132.5q87 4 148.5 43t61.5 81q0 22-16.5 39t-38.5 17zm-106-216q-37 0-97.5-47T1663 1406q77 8 140.5 32t101 54q37.5 30 37.5 58 0 13-9 24-12 14-32 14zm-639-625q20 0 34-14.5t14-36.5q0-19-9.5-31.5T1272 868q-22 0-34.5 16t-12.5 34q0 18 10.5 31.5T1262 963zm84 168q-79 0-124.5-56.5T1176 944q0-79 56.5-124t131.5-45q78 0 123.5 55t45.5 131q0 79-55.5 124.5T1346 1131zm779 616q-14 0-24.5-10.5T2090 1712q0-14 10.5-24.5t24.5-10.5q14 0 24.5 10.5t10.5 24.5q0 14-10.5 24.5T2125 1747zm-83-100q-14 0-24.5-10.5T2007 1612q0-14 10.5-24.5t24.5-10.5q14 0 24.5 10.5t10.5 24.5q0 14-10.5 24.5T2042 1647zm-806-807q-10-79-47.5-158t-90-144Q1046 473 989 433.5T883 394q1 4 1 8v9q0 41-28.5 67T791 504q-42 0-69-29.5T695 408q0-52 48-80.5T849 299q73 0 149 42.5T1140.5 457q66.5 73 113.5 164t62 187l-80 32zm193 93q38 0 38-39 0-20-14-36.5t-35-16.5q-16 0-28.5 11t-12.5 30q0 23 16.5 37t35.5 14zm154 439q125-137 239-199t239-62q99 0 99 62 0 33-46 61.5t-129 47.5l-402 90zm263 762q-93 0-161.5-62.5T1564 1896l15-100q58 91 98 143.5t75 74.5q35 22 77 22 59 0 122.5-26t118.5-69.5q55-43.5 89-96.5t34-106q0-61-55.5-122t-144-121q-88.5-60-186.5-116 124-28 206-54.5t134-61.5q52-35 83.5-87.5T2284 1045q22-78 46-193 26-123 40-203t14-125q0-38-11-55t-35-17q-64 0-157.5 51t-199 134.5Q1876 721 1776 820t-180 197q-80 98-121 176l-69-33q50-96 139-207t200-219q111-108 228.5-197t226-142q108.5-53 191.5-53 41 0 65 32.5t24 121.5q0 61-12.5 153T2428 872q-32 156-62 252.5t-71.5 151q-41.5 54.5-107.5 85t-171 54.5q67 25 130 75t104.5 112.5Q2292 1665 2292 1729q0 70-41.5 141.5T2142 2002q-67 60-145 96t-151 36zm-277-841q-1-8-1.5-15.5t-.5-12.5q0-77 58-181t164-216q61-65 114-103t83-38q30 0 30 33 0 40-47 113t-119 144l-281 276zm297-193q63-82 109.5-128t90-65q43.5-19 93.5-19 90 0 90 81 0 63-107 83l-276 48zm-431-295l-86-4q-5-27-8-55.5t-3-57.5q0-93 25.5-188t72-174.5q46.5-79.5 110-127.5t139.5-48q50 0 82.5 25.5T1800 248q0 40-27 67t-67 27q-34 0-60-21t-33-54q-51 13-94 78t-69.5 157q-26.5 92-26.5 187 0 30 3 59t9 57zm602 63q14-65 66-114.5t105-49.5q29 0 46 18.5t17 50.5q0 56-92 71l-142 24zm35-149q-14 0-24.5-10.5T2037 684q0-14 10.5-24.5T2072 649q14 0 24.5 10.5T2107 684q0 14-10.5 24.5T2072 719zm98-73q-16 0-28-12t-12-28q0-17 12-28.5t28-11.5q17 0 28.5 11.5T2210 606q0 16-11.5 28t-28.5 12zm120 53q-14 0-24.5-10.5T2255 664q0-14 10.5-24.5T2290 629q14 0 24.5 10.5T2325 664q0 14-10.5 24.5T2290 699zm5-99q-21 0-35.5-14.5T2245 550q0-21 14.5-35.5T2295 500q21 0 35.5 14.5T2345 550q0 21-14.5 35.5T2295 600z"/></svg>