<svg viewBox="0 0 2601 2335.392" xmlns="http://www.w3.org/2000/svg"><path d="M1891 2250q-149 0-266.5-113T1453 1834q-24-85-57.5-145.5T1323 1594q-62-56-118.5-82t-114.5-46q-53-19-110-45.5T867 1343q-64-58-104-139t-67-205Q584 898 524.5 794.5T465 587q0-71 24.5-147.5t64.5-142Q594 232 640.5 191t91.5-41q48 0 105.5 42.5t110 109q52.5 66.5 86.5 140t34 134.5q0 36-3 83.5t-3 67.5q0 19 4 34 8 10 31.5 23t83.5 39q132 56 228 113t164 127q68 70 113 165.5t74.5 227.5q29.5 132 49.5 314 9 80 32.5 124.5t56.5 44.5q23 0 34-21.5t11-54.5q0-30-10.5-66t-30.5-67q20-5 37-7.5t33-2.5q64 0 116 34.5t83.5 91.5q31.5 57 31.5 127 0 79-41 142t-112 99q-71 36-160 36zm-907-395q-19 0-33-13.5t-14-32.5q0-19 14-32.5t33-13.5q20 0 34 13.5t14 32.5q0 19-14 32.5t-34 13.5zm85 75q-19 0-33-13.5t-14-32.5q0-19 14-32.5t33-13.5q20 0 34 13.5t14 32.5q0 19-14 32.5t-34 13.5zm-591-585q-19 0-32.5-14t-13.5-34q0-20 13.5-33.5T478 1250q19 0 32.5 13.5T524 1297q0 20-13.5 34t-32.5 14zm-36-101q-19 0-32.5-14t-13.5-34q0-20 13.5-33.5T442 1149q19 0 32.5 13.5T488 1196q0 20-13.5 34t-32.5 14zm732 708q-19 0-33-13.5t-14-32.5q0-19 14-32.5t33-13.5q20 0 34 13.5t14 32.5q0 19-14 32.5t-34 13.5zm-203-214q-19 0-33-13.5t-14-32.5q0-19 14-32.5t33-13.5q20 0 34 13.5t14 32.5q0 19-14 32.5t-34 13.5zm127 155l-46-23 60-107-109 71-31-38 95-74-83 6-14-64 244 3-17 222-43-4v-95l-56 103zm-602-735q-19 0-32.5-14t-13.5-34q0-20 13.5-33.5T496 1063q19 0 32.5 13.5T542 1110q0 20-13.5 34t-32.5 14zm235 259q-61 0-101-34t-62-90l-87-3 4-33 43-14-70-31 7-33 68 15-44-59 42-17 40 47 5-74 35 7 30 150 65 42 89-140 110 116q-19 26-55 62t-70 62.5q-34 26.5-49 26.5zm-136-297q-19 0-32.5-14t-13.5-34q0-20 13.5-33.5T595 1025q19 0 32.5 13.5T641 1072q0 20-13.5 34t-32.5 14zm572 676l-9-60-130-49q28 0 46.5-6.5t18.5-21.5q0-11-10-22.5t-22-21.5q-13-11-24.5-23t-11.5-23q0-14 22.5-37.5t53.5-48q31-24.5 58-42.5l233 134q-58 0-115.5 10t-92.5 22q114 58 114 111 0 23-24 41t-55 27.5q-31 9.5-52 9.5zm384 55q-25 0-43-18t-18-43q0-25 18-42.5t43-17.5q25 0 42.5 17.5t17.5 42.5q0 25-17.5 43t-42.5 18zm-420-459q-25 0-43-18t-18-43q0-25 18-42.5t43-17.5q25 0 42.5 17.5t17.5 42.5q0 25-17.5 43t-42.5 18zm-320-341q-25 0-43-18t-18-43q0-25 18-42.5t43-17.5q25 0 42.5 17.5T871 990q0 25-17.5 43t-42.5 18zm250 131q-25 0-43-18t-18-43q0-25 18-42.5t43-17.5q25 0 42.5 17.5t17.5 42.5q0 25-17.5 43t-42.5 18zM623 640q-35 0-60-25t-25-60q0-35 25-60t60-25q35 0 60 25t25 60q0 35-25 60t-60 25zm808 762q-25 0-43-18t-18-43q0-25 18-42.5t43-17.5q25 0 42.5 17.5t17.5 42.5q0 25-17.5 43t-42.5 18zm220 189q-25 0-43-18t-18-43q0-25 18-42.5t43-17.5q25 0 42.5 17.5t17.5 42.5q0 25-17.5 43t-42.5 18zm247 553q89 0 149-52.5t60-131.5q0-55-31-91t-90-49l24-19q11 24 16.5 47.5t5.5 48.5q0 56-37.5 96t-96.5 40q-75 0-124.5-67.5T1710 1773q-22-206-58.5-341.5t-100-224.5q-63.5-89-165.5-153.5T1132 925q-58-25-95.5-46.5T983 841q-16-17-23.5-42t-7.5-62q0-15 1.5-45.5t3-63Q958 596 958 576q0-38-24.5-89.5t-61.5-101Q835 336 797 303t-65-33q-23 0-50.5 29t-52 75.5q-24.5 46.5-40 98T574 569q0 166 225 362 25 127 56 197t89 123q45 41 91 62.5t99 40.5q58 20 124.5 51t139.5 95q48 42 89 115t69 167q54 178 142 270t200 92zm-567-942q-25 0-43-18t-18-43q0-25 18-42.5t43-17.5q25 0 42.5 17.5t17.5 42.5q0 25-17.5 43t-42.5 18zM893 590q-35 0-60-25t-25-60q0-35 25-60t60-25q35 0 60 25t25 60q0 35-25 60t-60 25zm473 343l-167-78 32-150 85-32q29 70 37.5 133t12.5 127zm345 480l-105-238q0-42 30.5-55t74.5-13q35 0 76 4.5t77 13.5l95 5q9 12 9 32 0 21-16 43.5t-38 27.5l-193 40-10 140zm-548-747q-19 0-32.5-14t-13.5-34q0-20 13.5-33.5T1163 571q19 0 32.5 13.5T1209 618q0 20-13.5 34t-32.5 14zm117 116l-139-149 37-31 51 35-15-103 46-5 20 70 26-60 41 14-18 72 43-32 13 35-105 154zm-45-206q-19 0-32.5-14t-13.5-34q0-20 13.5-33.5T1235 481q19 0 32.5 13.5T1281 528q0 20-13.5 34t-32.5 14zm562 500q-19 0-32.5-14t-13.5-34q0-20 13.5-33.5T1797 981q19 0 32.5 13.5t13.5 33.5q0 20-13.5 34t-32.5 14zm-392-430q-19 0-32.5-14t-13.5-34q0-20 13.5-33.5T1405 551q19 0 32.5 13.5T1451 598q0 20-13.5 34t-32.5 14zm-70-80q-19 0-32.5-14t-13.5-34q0-20 13.5-33.5T1335 471q19 0 32.5 13.5T1381 518q0 20-13.5 34t-32.5 14zm585 631l-127-134 30-37 55 58-6-115 40-10 12 76 33-62 30 10-31 95 63-50 16 39-115 130zm-38-201q-19 0-32.5-14t-13.5-34q0-20 13.5-33.5T1882 901q19 0 32.5 13.5T1928 948q0 20-13.5 34t-32.5 14zm163 90q-19 0-32.5-14t-13.5-34q0-20 13.5-33.5T2045 991q19 0 32.5 13.5t13.5 33.5q0 20-13.5 34t-32.5 14zm-60-86q-19 0-32.5-14t-13.5-34q0-20 13.5-33.5T1985 905q19 0 32.5 13.5T2031 952q0 20-13.5 34t-32.5 14z"/></svg>