<svg viewBox="0 0 2601 2335.392" xmlns="http://www.w3.org/2000/svg"><path d="M1755 2100q-97 0-168.5-24.5T1462 2014q-53-37-93.5-73.5t-75-61Q1259 1855 1224 1855t-107 14.5q-72 14.5-160 14.5-184 0-290-95t-106-268q0-94 44.5-169t119-119.5Q799 1188 888 1188q79 0 150.5 35.5T1156 1321l-80 60q-71-93-188-93-61 0-110.5 30.5t-78 83Q671 1454 671 1521q0 130 71.5 196.5T957 1784q93 0 145-25t52-69q0-39-35.5-62.5T1033 1604q-38 0-67.5 24t-37.5 62l-78-16q13-65 64.5-107.5T1033 1524q50 0 92 19.5t70 52.5q35-50 95-81t129-31q52 0 104 25l-36 72q-33-17-68-17-44 0-85 20t-67 49q-26 29-26 57 0 41 56.5 68.5T1434 1786q77 0 147.5-21.5T1713 1715q61-28 110-49.5t83-21.5q37 0 73.5 17t79.5 34q43 17 98 17 47 0 89.5-37t69-108.5Q2342 1495 2342 1393q0-94-26.5-173t-76.5-133v-46q0-108-43-193.5T2077.5 712q-75.5-50-171.5-50l-4-80q11 0 22.5.5t24.5 2.5q-37-55-105-96.5t-155.5-65Q1601 400 1503 400q-132 0-248 43-88-18-174-18-152 0-283 49T593 608q-76 19-140.5 67T349 787q-39 64-39 131 0 64 37 109.5t94 45.5q40 0 63.5-15t23.5-40q0-37-23.5-65t-47-58Q434 865 434 826q0-54 51-103l70 72q-21 20-21 31 0 16 23.5 41t47 61.5Q628 965 628 1018q0 65-54 110t-133 45q-66 0-120.5-35t-87.5-93q-33-58-33-127 0-84 46.5-164t124-142Q448 550 539 520q91-92 235-143.5t307-51.5q82 0 166 15 125-40 256-40 132 0 249.5 37T1956 439.5q86 65.5 121 152.5 125 57 199.5 179.5T2351 1043v10q49 66 75 154t26 186q0 107-32 195t-87 145q-55 57-125 73-61 139-176.5 216.5T1755 2100zM559 1618q-111 0-204.5-54t-150-145.5Q148 1327 148 1217q0-59 19-116t58-112l92 58q-60 83-60 170 0 83 40.5 151.5t109 109Q475 1518 559 1518q25 0 58-5l18 98q-36 7-76 7zm-138-235q-34-71-34-143 0-66 26-141l76 28q-22 59-22 113 0 53 26 109l-72 34zm776 273l-46-71 100-7-54 78zm-35-39q-99 0-177.5-41.5T877 1465l74-30q19 44 77.5 73t133.5 29q90 0 154-41.5t64-96.5q0-52-57-91l44-66q93 61 93 157 0 61-40 110.5t-107.5 78.5q-67.5 29-150.5 29zm-346-519l-64-48q33-45 33-107t-33-106.5Q719 792 674 792v-80q80 0 135.5 68T865 943q0 89-49 155zm685 426l-97-24 34-73 92 22-29 75zM917 967q-89 0-138-75l66-44q27 39 72 39 31 0 55-20l50 62q-46 38-105 38zm119 310l-72-36q56-110 152-169.5t195-59.5q61 0 117.5 23.5T1529 1108l-60 54q-31-35-72.5-52t-86.5-17q-77 0-153 47.5T1036 1277zm504 451q-82-62-82-164 0-74 64-126t152-52q94 0 150 42t56 116q0 31-11 64l-76-22q7-23 7-42 0-78-126-78-55 0-95.5 29.5T1538 1564q0 61 48 99l-46 65zM958 739q-11-50-59.5-83T785 623q-60 0-107 31l-44-68q70-43 151-43 92 0 163 50t88 128l-78 18zm335 353q-77-15-127.5-83T1115 850q0-33 5-60l78 16q-3 16-3 44 0 63 32.5 108.5t81.5 55.5l-16 78zm271 386q-87 0-162-51l46-66q52 37 116 37 70 0 114.5-43.5T1723 1242q0-35-8-86l78-14q10 51 10 100 0 103-67.5 169.5T1564 1478zM862 636q-29-20-48-59t-19-79q0-44 24.5-82.5T884 357l36 72q-45 22-45 69 0 20 10 41.5t23 30.5l-46 66zm229 263l-32-74q57-26 88-85.5t31-117.5q0-40-16-70.5t-51-39.5l20-78q65 16 96 70t31 121q0 79-43 158.5T1091 899zm1069 691q0-51-37.5-87.5T2032 1466q-38 0-86 21t-77 51l-58-56q40-41 103.5-68.5T2032 1386q86 0 147 60t61 144h-80zm-757-725l-58-54q27-30 27-69 0-23-21-40t-53-17q-36 0-65 11l-30-74q43-17 95-17 65 0 109.5 40t44.5 97q0 72-49 123zm487 221q-24-88-78.5-135.5T1682 903q-55 0-105.5 23.5T1491 989q-35 39-45 86l-78-16q13-66 59.5-119.5t113.5-85q67-31.5 141-31.5 103 0 179 64t107 177l-78 22zm-285-365l-72-36q11-22 16.5-40.5t5.5-34.5q0-44-45-68t-144-39l12-80q130 20 194.5 65.5T1637 606q0 25-8 54t-24 61zm673 646q-61-2-104-45t-43-104q0-8 1.5-17.5t2.5-17.5l78 20q-2 8-2 15 0 28 19.5 48.5t47.5 20.5v80zm-222-98q-66 0-138-28l30-74q56 22 108 22 64 0 114-33.5t81-97.5l72 34q-41 85-110.5 131t-156.5 46zm-133-284q-43 0-85-15l28-76q28 11 57 11 74 0 92-103l78 14q-13 79-57.5 124T1923 985zm-121-277q-109 0-185.5-52T1540 528q0-41 25.5-79.5t68.5-64q43-25.5 95-25.5 29 0 62 11v90q-36-16-69-16-49 0-75.5 29t-26.5 55q0 39 53.5 69.5T1802 628v80zm-54 1302q15 0 30-1t40-3q-106-32-180.5-66.5T1507 1849q-13-13-30-13-16 0-30 12.5t-14 28.5q0 19 20 39 27 27 76.5 48t107.5 33.5q58 12.5 111 12.5zm166-27q28-11 52.5-26.5t46.5-32.5q-85-32-143.5-60.5T1743 1797q-16-9-29-9-14 0-26 12.5t-12 27.5q0 21 23 37 57 40 111 68.5t104 49.5zm151-124q14-16 25.5-34t21.5-38q-68-9-104-33.5t-65-24.5q-16 0-27.5 10t-11.5 27q0 20 28 39t66 33q38 14 67 21z"/></svg>