<svg viewBox="0 0 2601 2335.392" xmlns="http://www.w3.org/2000/svg"><path d="M1765 2000q-166 0-361-67.5T976 1710l-60-40q-155-104-244-145t-151-41q-40 0-67.5 11.5T395 1518q-31 11-83 11-118 0-191-80t-73-208q0-146 97.5-226.5T421 934q154 0 326 68.5t404 223.5l60 40q138 91 228.5 148.5T1590 1503q60 31 102.5 42.5t83.5 11.5q88 0 136.5-38.5T1961 1415q0-42-26-79t-91.5-78q-65.5-41-183.5-94l-67-30q-184-83-272.5-180T1232 733q0-149 110-241t291-92q111 0 225 22.5t224.5 45Q2193 490 2292 490q51 0 80.5-5.5t60.5-5.5q50 0 84.5 22t34.5 72q0 87-96 139t-281 52q-70 0-147.5-8T1879 739.5q-71-8.5-123-8.5-33 0-49.5 4.5T1690 747q0 10 31.5 27.5T1825 825l120 55q218 100 334 238.5t116 323.5q0 160-79 286.5t-221 199q-142 72.5-330 72.5zM305 1365q-30 0-54-15.5t-24-32.5q0-22 22-22 10 0 23.5 6t33.5 6q20 0 33.5-5.5t25.5-5.5q22 0 22 22 0 19-25.5 33t-56.5 14zm-107-106q-20 0-34-16.5t-14-39.5q0-23 14-39.5t34-16.5q20 0 34 16.5t14 39.5q0 23-14 39.5t-34 16.5zm189 0q-20 0-34-16.5t-14-39.5q0-23 14-39.5t34-16.5q20 0 34 16.5t14 39.5q0 23-14 39.5t-34 16.5zm361 277l-36-72q52-25 95.5-76t72.5-115q29-64 35-129l80 8q-7 78-41.5 154.5t-88 137Q812 1504 748 1536zm632 406q-40 0-112.5-30.5t-159.5-84q-87-53.5-171-120.5-8-6-8-13 0-17 28-43.5t67.5-66q39.5-39.5 73.5-92.5 33-51 54-103.5t37.5-87.5q16.5-35 36.5-35 6 0 14 5l342 213q23 14 34.5 49t11.5 68q0 46-22 104.5t-58.5 112.5q-36.5 54-80.5 89t-87 35zm385-52q161 0 277.5-57t179.5-158.5q63-101.5 63-232.5 0-153-94.5-267T1903 970l-85-40q-95-45-144.5-75t-66.5-55.5q-17-25.5-17-56.5 0-56 43.5-84t122.5-28q55 0 129.5 10.5T2037 663q77 11 138 11 122 0 201-24.5t79-58.5q0-22-40-22-27 0-57.5 5.5T2292 580q-78 0-162-12t-169.5-27.5Q1875 525 1792 513t-159-12q-139 0-220 62.5T1332 733q0 92 70.5 165t230.5 144l67 30q140 62 221 116t115.5 108.5Q2071 1351 2071 1415q0 115-82 183.5t-213 68.5q-50 0-102-13.5t-119.5-47q-67.5-33.5-164-93.5T1155 1360l-60-40q-147-99-265.5-159.5t-218-88.5q-99.5-28-190.5-28-128 0-194.5 51T160 1241q0 78 42.5 128t109.5 50q36 0 65-11t62.5-22.5Q473 1374 521 1374q80 0 182.5 45.5T972 1576l60 40q222 148 400.5 211t332.5 63zm282 0q0-96-36.5-166.5T1906 1619l36-72q89 45 137 134.5t48 208.5h-80zM1640 822q-39-40-94-59.5T1441 743q-47 0-79.5 17t-32.5 50l-80-4q0-68 60-105t141-37q63 0 129.5 24.5T1698 766l-58 56zm32 316q-8-25-8-55 0-83 64.5-139.5T1879 887q55 0 106 26l-36 72q-36-18-71-18-54 0-94 34t-40 84q0 18 4 31l-76 22zm367 202l-78-20q21-78 78.5-119.5T2164 1159q50 0 99.5 23.5t88.5 72.5l-62 50q-27-34-60-50t-66-16q-42 0-77 26t-48 75zm-191-645l-78-22q8-27 8-57 0-66-51-126l62-52q70 83 70 180 0 35-11 77z"/></svg>